<?xml version="1.0" encoding="UTF-8"?>
<svg width="158px" height="159px" viewBox="0 0 158 159" version="1.1" xmlns="http://www.w3.org/2000/svg" xmlns:xlink="http://www.w3.org/1999/xlink">
    <!-- Generator: Sketch 49.3 (51167) - http://www.bohemiancoding.com/sketch -->
    <title>Page 1</title>
    <desc>Created with Sketch.</desc>
    <defs>
        <polygon id="path-1" points="0.000532703913 0.717818523 157.762128 0.717818523 157.762128 158.479281 0.000532703913 158.479281"></polygon>
        <path d="M9.44371059,0.829194965 L9.44371059,11.3420051 C9.44371059,12.0716967 9.99650723,12.6645711 10.6778291,12.6645711 C11.359151,12.6645711 11.9119476,12.0716967 11.9119476,11.3420051 L11.9119476,3.294668 L18.4073082,3.294668 L18.4073082,11.5838537 C18.4073082,15.9053414 14.8915215,19.4225101 10.5686518,19.4225101 C6.24854599,19.4225101 2.73137734,15.9053414 2.73137734,11.5838537 L2.73137734,3.294668 L4.85273446,3.294668 L4.85273446,11.6280774 C4.85273446,14.7790183 7.41771089,17.3453767 10.5686518,17.3453767 C13.7223566,17.3453767 16.285951,14.7790183 16.285951,11.6280774 L16.285951,5.23083824 L13.817714,5.23083824 L13.817714,11.6280774 C13.817714,13.4177565 12.3610949,14.8771397 10.5686518,14.8771397 C8.77897262,14.8771397 7.31958949,13.4177565 7.31958949,11.6280774 L7.31958949,0.829194965 L0.264522322,0.829194965 L0.264522322,11.5838537 C0.264522322,17.2666032 4.88728425,21.8893651 10.5686518,21.8893651 C16.2514013,21.8893651 20.8755452,17.2666032 20.8755452,11.5838537 L20.8769272,0.829194965 L9.44371059,0.829194965 Z" id="path-3"></path>
    </defs>
    <g id="Main-Pages" stroke="none" stroke-width="1" fill="none" fill-rule="evenodd">
        <g id="Coming-soon" transform="translate(-721.000000, -328.000000)">
            <g id="Page-1" transform="translate(720.271499, 327.000000)">
                <g id="Group-12" transform="translate(0.980488, 0.637098)">
                    <g id="Group-3">
                        <mask id="mask-2" fill="white">
                            <use xlink:href="#path-1"></use>
                        </mask>
                        <g id="Clip-2"></g>
                        <path d="M78.8819964,5.80633948 C38.1927398,5.80633948 5.0905186,38.9098924 5.0905186,79.5991491 C5.0905186,120.287074 38.1927398,153.389295 78.8819964,153.389295 C119.571253,153.389295 152.672143,120.287074 152.672143,79.5991491 C152.672143,38.9098924 119.571253,5.80633948 78.8819964,5.80633948 M78.8819964,158.479281 C35.3867219,158.479281 0.000532703913,123.093092 0.000532703913,79.5991491 C0.000532703913,36.1038746 35.3867219,0.717685347 78.8819964,0.717685347 C122.375939,0.717685347 157.762128,36.1038746 157.762128,79.5991491 C157.762128,123.093092 122.375939,158.479281 78.8819964,158.479281" id="Fill-1" fill="#318BF4" mask="url(#mask-2)"></path>
                    </g>
                    <path d="M27.9903944,82.1438757 L15.2680932,82.1438757 C13.8630866,82.1438757 12.7231003,81.0052211 12.7231003,79.5988827 C12.7231003,78.1925444 13.8630866,77.0538898 15.2680932,77.0538898 L27.9903944,77.0538898 C29.3967328,77.0538898 30.5353874,78.1925444 30.5353874,79.5988827 C30.5353874,81.0052211 29.3967328,82.1438757 27.9903944,82.1438757 M142.495101,82.1438757 L129.772799,82.1438757 C128.366461,82.1438757 127.227806,81.0052211 127.227806,79.5988827 C127.227806,78.1925444 128.366461,77.0538898 129.772799,77.0538898 L142.495101,77.0538898 C143.901439,77.0538898 145.041425,78.1925444 145.041425,79.5988827 C145.041425,81.0052211 143.901439,82.1438757 142.495101,82.1438757 M78.8822628,145.758045 C77.4759245,145.758045 76.3372698,144.618059 76.3372698,143.211721 L76.3372698,130.489419 C76.3372698,129.083081 77.4759245,127.944426 78.8822628,127.944426 C80.2886011,127.944426 81.4272557,129.083081 81.4272557,130.489419 L81.4272557,143.211721 C81.4272557,144.618059 80.2886011,145.758045 78.8822628,145.758045" id="Fill-4" fill="#318BF4"></path>
                    <path d="M78.8819964,79.5986164 C77.4783216,79.5986164 76.3383352,80.7386027 76.3383352,82.1422776 C76.3383352,83.5459524 77.4783216,84.6859387 78.8819964,84.6859387 C80.2856712,84.6859387 81.4256576,83.5459524 81.4256576,82.1422776 C81.4256576,80.7386027 80.2856712,79.5986164 78.8819964,79.5986164 M78.8819964,89.7772564 C74.6736355,89.7772564 71.2483494,86.3506385 71.2483494,82.1422776 C71.2483494,77.9339166 74.6736355,74.5086305 78.8819964,74.5086305 C83.0903573,74.5086305 86.5156435,77.9339166 86.5156435,82.1422776 C86.5156435,86.3506385 83.0903573,89.7772564 78.8819964,89.7772564" id="Fill-6" fill="#318BF4"></path>
                    <path d="M83.5171864,82.5964076 C82.8659558,82.5964076 82.2147253,82.3473686 81.7179789,81.8492904 C80.7231543,80.8557976 80.7231543,79.2457 81.7179789,78.2522072 L117.795351,42.1748347 C118.788844,41.1786784 120.398942,41.1786784 121.392435,42.1748347 C122.387259,43.1696593 122.387259,44.7797568 121.392435,45.7732496 L85.3163938,81.8492904 C84.8196474,82.3473686 84.1684169,82.5964076 83.5171864,82.5964076 M74.0044262,83.2423111 C73.4384283,83.2423111 72.8684351,83.054533 72.3943286,82.6669909 L49.2803058,63.756002 C48.1935899,62.8663865 48.0311152,61.2616159 48.9220625,60.1748999 C49.811678,59.0868522 51.4164485,58.9283728 52.5031645,59.8179883 L75.6171873,78.7289772 C76.7052351,79.6185928 76.866378,81.2220315 75.9754307,82.3087475 C75.4733573,82.9240206 74.7408894,83.2423111 74.0044262,83.2423111" id="Fill-8" fill="#318BF4"></path>
                    <path d="M89.0003077,24.480142 C89.0003077,29.9563382 84.5442395,34.4110747 79.0680433,34.4110747 C73.5931788,34.4110747 69.1384423,29.9563382 69.1384423,24.480142 L69.1384423,14.1150556 L75.937076,14.1150556 L75.937076,24.5227583 C75.937076,26.248719 77.3434144,27.6537255 79.0680433,27.6537255 C80.7953357,27.6537255 82.1990105,26.248719 82.1990105,24.5227583 L82.1990105,18.359374 L84.5775335,18.359374 L84.5775335,24.5227583 C84.5775335,27.5605024 82.1057873,30.0322485 79.0680433,30.0322485 C76.031631,30.0322485 73.558553,27.5605024 73.558553,24.5227583 L73.558553,16.4922468 L71.5156335,16.4922468 L71.5156335,24.480142 C71.5156335,28.6445548 74.9049622,32.0325517 79.0680433,32.0325517 C83.2337879,32.0325517 86.6217848,28.6445548 86.6217848,24.480142 L86.6217848,16.4922468 L80.3625138,16.4922468 L80.3625138,24.247084 C80.3625138,24.9502532 79.8284781,25.5215781 79.1732523,25.5215781 C78.5166947,25.5215781 77.9839908,24.9502532 77.9839908,24.247084 L77.9839908,14.1150556 L89.0016395,14.1150556 L89.0003077,24.480142 Z" id="Fill-10" fill="#318BF4"></path>
                </g>
                <g id="Group-15" transform="translate(69.481572, 14.457014)">
                    <mask id="mask-4" fill="white">
                        <use xlink:href="#path-3"></use>
                    </mask>
                    <g id="Clip-14"></g>
                    <polygon id="Fill-13" fill="#318BF4" mask="url(#mask-4)" points="-2.88227257 25.03616 24.0251041 25.03616 24.0251041 -2.31898192 -2.88227257 -2.31898192"></polygon>
                </g>
            </g>
        </g>
    </g>
</svg>