<?xml version="1.0" encoding="UTF-8"?>
<svg width="70px" height="68px" viewBox="0 0 70 68" version="1.1" xmlns="http://www.w3.org/2000/svg" xmlns:xlink="http://www.w3.org/1999/xlink" xml:space="preserve">
    <title>Page 1</title>
    <desc>Created with Sketch.</desc>
    <defs></defs>
    <g id="Elements" stroke="none" stroke-width="1" fill="none" fill-rule="evenodd" stroke-linecap="round" stroke-linejoin="round">
        <g id="Icon-3-Copy-7" transform="translate(-3.000000, -14.000000)" stroke="#318BF4" stroke-width="3.5">
            <g id="Page-1" transform="translate(8.000000, 22.000000)">
                <path d="M45.48,16.49986 L45.48,4.39986 L60,4.39986 L60,16.49986 M11.6,16.49986 L23.7,4.39986 L35.8,16.49986" id="Stroke-1"></path>
                <g id="Group-10">
                    <path d="M43.5,10.22986 L40.596,17.48986 M31.4,15.06986 L39.87,-5.50014 L48.34,-1.87014 L45.436,5.38986" id="Stroke-2"></path>
                    <polyline id="Stroke-4" points="-3 0.549875 8 0.549875 19 44.549875 54.2 44.549875 63 18.149875 12.4 18.149875"></polyline>
                    <path d="M21.2,48.950425 C23.6299,48.950425 25.6,50.919425 25.6,53.350425 C25.6,55.780325 23.6299,57.750425 21.2,57.750425 C18.7701,57.750425 16.8,55.780325 16.8,53.350425 C16.8,50.919425 18.7701,48.950425 21.2,48.950425 Z" id="Stroke-6"></path>
                    <path d="M49.8,48.950425 C52.2299,48.950425 54.2,50.919425 54.2,53.350425 C54.2,55.780325 52.2299,57.750425 49.8,57.750425 C47.3701,57.750425 45.4,55.780325 45.4,53.350425 C45.4,50.919425 47.3701,48.950425 49.8,48.950425 Z" id="Stroke-8"></path>
                </g>
            </g>
        </g>
    </g>
</svg>