<?xml version="1.0" encoding="utf-8"?>
<!-- Generator: Adobe Illustrator 23.0.1, SVG Export Plug-In . SVG Version: 6.00 Build 0)  -->
<svg version="1.1" id="Layer_1" xmlns="http://www.w3.org/2000/svg" xmlns:xlink="http://www.w3.org/1999/xlink" x="0px" y="0px"
	 viewBox="0 0 91 19" style="enable-background:new 0 0 91 19;" xml:space="preserve">
<style type="text/css">
	.st0{fill:#FFFFFF;}
</style>
<path class="st0" d="M12.1,12.7C12,14.5,10.7,15.8,9,16c-0.1,0-0.2,0-0.3,0c-2.2,0-3-3-3.1-5.8c0-0.9,0.1-3.8,1.5-5.3
	C7.6,4.4,8.2,4.1,9,4.2c1.9,0.2,3.3,1.6,3.4,3.5l0,0.1l4.2,0.4l0-5.4l-3.9-0.4l0,1c-1.5-1.3-2.9-1.6-4.9-1.8C5.2,1.3,3.3,2,1.9,3.5
	c-1.4,1.6-2.1,4.2-1.9,7.1C0.5,16,3.1,18.7,8,18.7c0.4,0,0.8,0,1.2,0c3.9-0.3,6.5-2.3,7.7-5.9l0-0.1L12.1,12.7L12.1,12.7z M18,2.9
	v2.4l1.5,0.2v9.3L17.9,15l0,2.4l8.4-0.6l-0.1-2.3l-2.1-0.1l0-3l1.2-0.1l0.2,1.7l2.9-0.1l0-5.2l-2.9-0.1l0,1.3l-1.3,0l0.1-3.3
	l5.2,0.2l0.1,2L33.1,8l-0.1-4.1L18,2.9z M56.6,3.9l-8.4,0.3l-2.8,8.4l-2.8-8.4L34.1,4L34.2,6l1.3,0.1v8.1l-1.4,0.1l0.1,2.1l6.6-0.1
	v-2.2l-1.5,0l0.1-7.5l3.6,9.5l4.3,0l3.4-9.3l0.1,7.3l-1.5,0l0.1,2.2l7.3,0.2l0-2.2l-1.4,0l-0.1-8l1.5-0.1L56.6,3.9z M89.3,4.3
	l1.2-0.2l0-3.1l-7.2,0.9l0.1,2.8L85,4.6c0,0.7,0,1.3,0.1,1.8c0.1,1.7,0.1,2.8,0,4.8c0,0.2,0,0.4,0,0.6c0,1.9,0,4.2-2.8,4.2l-0.1,0
	c-2.5,0-2.6-2.1-2.7-4l0,0c-0.1-2.3-0.1-3.7,0-5.9c0-0.4,0-0.8,0-1.2l1.7-0.1l-0.1-2.7l-7.8,0.8l0,2.5l1.3-0.1c0,0.6,0,1,0,1.5
	c0,0.8,0,1.9-0.1,4.9c-0.2,4.3,1.9,6.4,6.9,6.9c0.9,0.1,1.6,0.1,2.3,0.1h0c5.4,0,5.4-2.6,5.5-6.2c0-2.3,0-4.4,0-6.1
	C89.4,5.5,89.3,4.8,89.3,4.3z M68.7,5.7l0.1,1.8l3.7-0.1L72.5,3L57.3,3.9V6l1.6,0.1l-0.1,8.1l-1.6,0.1l0.1,2.2l15.1,0.8v-4.6
	l-3.7-0.1l0,2.1l-5.2-0.3l0-3.1l1.4,0l0.1,1.4l2.9,0.1l0-5.5l-2.9,0.1v1.4l-1.4,0l0-2.9L68.7,5.7z"/>
</svg>
