<?xml version="1.0" encoding="UTF-8"?>
<svg viewBox="0 0 85 86" version="1.1" xmlns="http://www.w3.org/2000/svg" xmlns:xlink="http://www.w3.org/1999/xlink">
    <defs>
        <polygon id="path-1" points="3.49229372e-05 0.144595578 70.8690906 0.144595578 70.8690906 38.28 3.49229372e-05 38.28"></polygon>
    </defs>
    <g id="Activate-SIM" stroke="none" stroke-width="1" fill="none" fill-rule="evenodd">
        <g id="Activate-SIM---Splitter" transform="translate(-758.000000, -489.000000)">
            <g id="Choose-SIM" transform="translate(240.000000, 233.330002)">
                <g id="Sims" transform="translate(127.000000, 192.000000)">
                    <g id="Page-1" transform="translate(390.627000, 63.651084)">
                        <g transform="translate(0.898000, 1.688500)">
                            <path d="M21.4962825,18.253455 C21.4982625,18.189765 21.5079975,18.136635 21.5141025,18.10347 C21.5137725,18.105945 21.5136075,18.113865 21.5134425,18.12294 L21.5139375,18.1137 C22.1105775,5.15064 31.3565175,3.75111 35.3039775,3.75111 L35.5140225,3.75111 C40.4308575,3.860175 48.7443825,5.87103 49.3040625,18.113865 L49.3170975,18.206265 C49.3340925,18.324075 50.6463375,30.39069 44.8761225,36.88674 C42.5737125,39.48153 39.5070225,40.76061 35.5009875,40.796745 L35.4089175,40.796745 L35.3216325,40.796745 C31.3042125,40.76028 28.2429675,39.48087 25.9578825,36.88509 C20.4637125,30.714915 21.4042125,19.17828 21.4962825,18.253455 M35.1330375,44.530365 L35.6889225,44.530365 C40.6526175,44.445555 44.6805975,42.706125 47.6522475,39.36075 C54.2020875,31.977495 53.1630825,19.308135 53.0229975,17.887815 L53.0211825,17.862405 C52.5930075,8.733285 48.3059775,4.415895 44.7850425,2.40141 C42.1280475,0.87582 39.0410625,0.06798 35.6090625,-5.68434189e-14 L35.3216325,0.000165 C33.4275975,0.000165 29.7180675,0.30294 26.1545625,2.331945 C22.5849525,4.35468 18.2413275,8.690385 17.8143075,17.862075 L17.8124925,17.88765 C17.6724075,19.30797 16.6335675,31.97766 23.1834075,39.36108 C26.1374025,42.705465 30.1577925,44.4444 35.1330375,44.530365" id="Fill-1" fill="#164377"></path>
                            <g id="Group-5" transform="translate(0.000000, 45.210165)">
                                <mask id="mask-2" fill="white">
                                    <use xlink:href="#path-1"></use>
                                </mask>
                                <g id="Clip-4"></g>
                                <path d="M70.864794,21.350571 C70.864794,21.292491 70.860999,21.234741 70.857369,21.175011 C70.852254,21.091191 70.847304,21.004731 70.847304,20.913321 L70.846809,20.903586 C70.745169,17.551446 70.507569,9.701241 63.257634,7.228881 C63.241464,7.223436 63.217704,7.216836 63.194109,7.210071 C63.163254,7.201326 63.132894,7.192416 63.105174,7.183836 C55.169829,5.156646 48.484854,0.535986 48.425289,0.491106 C48.029949,0.212751 47.535939,0.102201 47.045724,0.188826 C46.555179,0.275286 46.126179,0.548526 45.837759,0.957561 C45.246729,1.795926 45.452154,2.962146 46.295799,3.556641 C46.583229,3.759591 53.428584,8.546571 62.106099,10.777041 L62.148999,10.790076 C66.503349,12.341076 67.003959,16.893096 67.131174,21.038061 C67.131339,21.196296 67.131339,21.319881 67.145034,21.429606 L67.148829,21.485046 C67.167144,23.138511 67.057089,25.567476 66.771639,26.993406 L66.727419,27.215001 L66.530739,27.326706 C63.541434,29.024556 52.464984,34.563936 35.444079,34.563936 C18.509634,34.563936 7.355799,29.011686 4.340754,27.309876 L4.143084,27.198336 L4.098534,26.975916 C3.806649,25.516326 3.686529,23.045616 3.721839,21.462111 C3.721674,21.395286 3.726129,21.317571 3.730914,21.237381 C3.734874,21.172866 3.739164,21.106371 3.739164,21.035751 C3.866544,16.875771 4.366989,12.323751 8.721504,10.772586 L8.764404,10.759551 C16.411164,8.793906 22.745019,4.772031 24.504084,3.586176 C24.539229,3.562581 24.564969,3.545256 24.581139,3.534531 C24.986709,3.246276 25.257309,2.819256 25.343439,2.331351 C25.429899,1.841136 25.319514,1.347126 25.032579,0.940071 C24.437919,0.096426 23.271864,-0.108834 22.433499,0.482031 C22.385979,0.518001 15.830364,5.118696 7.749819,7.170306 C7.693059,7.184496 7.651644,7.198356 7.610064,7.212216 C0.364254,9.700086 0.125664,17.537586 0.023694,20.884446 L0.022869,20.910846 C0.023199,21.054726 0.023199,21.203556 0.005709,21.361956 L0.005709,21.385551 C-0.032241,23.366211 0.105699,27.213186 0.863214,29.128506 C1.002804,29.491341 1.248324,29.788836 1.575024,29.992941 C1.711314,30.083691 14.253129,38.280066 35.461569,38.280066 C55.690074,38.280066 68.000889,30.846816 69.338049,29.999211 C69.671679,29.781741 69.926604,29.474346 70.058109,29.132796 C70.957029,26.741781 70.869084,21.629091 70.864959,21.412611 L70.864794,21.350571 Z" id="Fill-3" fill="#164377" mask="url(#mask-2)"></path>
                            </g>
                        </g>
                        <path d="M83.276367,13.6959977 L62.3512459,13.6959977 C61.48246,13.6959977 60.7779285,12.9914662 60.7779285,12.1226803 C60.7779285,11.2537371 61.48246,10.5493629 62.3512459,10.5493629 L83.276367,10.5493629 C84.1451528,10.5493629 84.8496843,11.2537371 84.8496843,12.1226803 C84.8496843,12.9914662 84.1451528,13.6959977 83.276367,13.6959977" id="Fill-5" fill="#FFFFFF"></path>
                        <path d="M83.276367,13.6959977 L62.3512459,13.6959977 C61.48246,13.6959977 60.7779285,12.9914662 60.7779285,12.1226803 C60.7779285,11.2537371 61.48246,10.5493629 62.3512459,10.5493629 L83.276367,10.5493629 C84.1451528,10.5493629 84.8496843,11.2537371 84.8496843,12.1226803 C84.8496843,12.9914662 84.1451528,13.6959977 83.276367,13.6959977" id="Fill-5" fill="#FFFFFF" transform="translate(72.813806, 12.122680) rotate(90.000000) translate(-72.813806, -12.122680) "></path>
                    </g>
                </g>
            </g>
        </g>
    </g>
</svg>