<?xml version="1.0" encoding="UTF-8"?>
<svg viewBox="0 0 70 90" version="1.1" xmlns="http://www.w3.org/2000/svg" xmlns:xlink="http://www.w3.org/1999/xlink">
    <!-- Generator: Sketch 49.2 (51160) - http://www.bohemiancoding.com/sketch -->
    <title>Page 1</title>
    <desc>Created with Sketch.</desc>
    <defs></defs>
    <g id="Activate-SIM" stroke="none" stroke-width="1" fill="none" fill-rule="evenodd">
        <g id="Activate-SIM---Splitter" transform="translate(-1072.000000, -482.000000)">
            <g id="Page-1" transform="translate(1072.000000, 481.859375)">
                <path d="M56.3322407,82.900428 C56.3322407,84.7270821 54.8452884,86.2140344 53.0186343,86.2140344 L6.62736812,86.2140344 C4.80071405,86.2140344 3.31376172,84.7270821 3.31376172,82.900428 L3.31376172,16.6273681 C3.31376172,14.8007141 4.80071405,13.3137617 6.62736812,13.3137617 L40.7283279,13.3137617 L56.3322407,28.9111507 L56.3322407,82.900428 Z M59.160448,27.0537418 L42.5857369,10.4853991 C42.2750814,10.1747437 41.854454,10 41.4142552,10 L6.62736812,10 C2.97219605,10 0,12.9721961 0,16.6273681 L0,82.9005834 C0,86.5556001 2.97219605,89.5277962 6.62736812,89.5277962 L53.0186343,89.5277962 C56.6736511,89.5277962 59.6458471,86.5556001 59.6458471,82.900428 L59.6458471,28.2250682 C59.6458471,27.7850247 59.4711034,27.3643972 59.160448,27.0537418 Z" id="Fill-1" fill="#164377"></path>
                <path d="M30.007981,62.010371 C30.97676,62.010371 31.7650483,61.1456615 31.7650483,60.0825986 L31.7650483,43.9577166 L45.5258422,43.9577166 L45.522891,60.550135 C45.522891,69.2200627 38.4694589,76.2738055 29.7995312,76.2738055 C21.1292928,76.2738055 14.0757054,69.2200627 14.0757054,60.5499797 L14.0757054,43.9577166 L19.405155,43.9577166 L19.405155,60.6352546 C19.405155,66.3665371 24.0680934,71.0291648 29.7995312,71.0291648 C35.5311243,71.0291648 40.1939074,66.3665371 40.1939074,60.6352546 L40.1939074,48.9308444 L36.6802388,48.9308444 L36.6802388,60.6352546 C36.6802388,64.4292897 33.5935663,67.5158069 29.7995312,67.5158069 C26.0053408,67.5158069 22.9186682,64.4292897 22.9186682,60.6352546 L22.9186682,40.4442034 L10.5623476,40.4442034 L10.5623476,60.5499797 C10.5623476,71.1574655 19.1920454,79.7871633 29.7995312,79.7871633 C40.4068617,79.7871633 49.0365595,71.1577761 49.0365595,60.550601 L49.0404427,40.4442034 L28.2515351,40.4442034 L28.2515351,60.0825986 C28.2515351,61.1456615 29.0395126,62.010371 30.007981,62.010371" id="Fill-3" fill="#164377"></path>
                <g transform="translate(39.744572, 0.573381)" fill="#FFFFFF" stroke="#FFFFFF" stroke-width="0.800000191">
                    <g id="Group-3">
                        <path d="M5.91168762,6.29667822 C10.5996325,2.05612565 17.6153324,1.99131764 22.3680853,5.86224748 L18.6008483,6.00488712 C18.1145711,6.02436053 17.7384986,6.42635626 17.757972,6.91263341 C17.7773834,7.38594896 18.1664796,7.75557168 18.6332833,7.75557168 L18.6656563,7.75557168 L24.4493837,7.54161222 C24.9227613,7.52213881 25.292322,7.13955448 25.292322,6.66623893 L25.292322,6.60143092 L25.292322,6.5689959 L25.292322,6.56254611 L25.0783626,0.843626667 C25.0588891,0.3572875 24.6503816,-0.0187230036 24.1706163,0.000688391322 C23.6842771,0.0201618035 23.3082666,0.422157529 23.327678,0.908496696 L23.4638678,4.49414725 C21.1101277,2.56838802 18.2118142,1.45313206 15.1124408,1.29753082 C11.2739459,1.10298275 7.58454055,2.41923657 4.73807344,4.99983579 C0.821746986,8.54660153 -0.838144343,13.9412949 0.406789658,19.0766321 C0.504032684,19.4786278 0.860631793,19.7444337 1.25617773,19.7444337 C1.32749755,19.7444337 1.39230556,19.7379839 1.4636874,19.7185105 C1.93049114,19.6018561 2.22228223,19.1284785 2.10556579,18.6616128 C1.01623304,14.1488045 2.46867671,9.40901322 5.91168762,6.29667822" id="Fill-1"></path>
                    </g>
                    <g id="Group-6" transform="translate(3.597000, 11.969327)">
                        <path d="M25.0281348,0.707585657 C24.9114184,0.240719903 24.4380408,-0.0510091768 23.9712371,0.0656452446 C23.5043713,0.182361683 23.2126422,0.655739248 23.3292966,1.12254299 C24.4250792,5.63541323 22.9661857,10.3752666 19.5231748,13.4875396 C17.1046266,15.6726549 14.0701853,16.748964 11.0486435,16.748964 C8.16322958,16.748964 5.28438948,15.7698979 2.96308432,13.8376889 L6.77571796,13.4940514 C7.2554833,13.4485927 7.6120824,13.0271236 7.56668579,12.5409085 C7.52128917,12.0545693 7.09988205,11.70442 6.61354288,11.7498166 L0.84928884,12.2685288 C0.369523501,12.3139254 0.0128623748,12.7353945 0.0582589918,13.2216717 L0.576971156,18.9859257 C0.615855963,19.4398299 0.998440294,19.7835294 1.44583264,19.7835294 C1.47175584,19.7835294 1.49774106,19.7835294 1.52360225,19.7770176 C2.00342961,19.731621 2.36009073,19.3101518 2.31469412,18.8238747 L2.00342961,15.3160557 C4.35710776,17.2223416 7.24252169,18.3310857 10.3224217,18.486687 C10.5688162,18.4997106 10.8152106,18.5061604 11.0550933,18.5061604 C14.6277823,18.5061604 18.0253965,17.1963563 20.696789,14.78432 C24.6131775,11.2376162 26.2730068,5.8493727 25.0281348,0.707585657" id="Fill-4"></path>
                    </g>
                </g>
            </g>
        </g>
    </g>
</svg>