<?xml version="1.0" encoding="UTF-8"?>
<svg width="133px" height="104px" viewBox="0 0 133 104" version="1.1" xmlns="http://www.w3.org/2000/svg" xmlns:xlink="http://www.w3.org/1999/xlink">
    <!-- Generator: Sketch 49.3 (51167) - http://www.bohemiancoding.com/sketch -->
    <title>Group 2</title>
    <desc>Created with Sketch.</desc>
    <defs></defs>
    <g id="Create-account" stroke="none" stroke-width="1" fill="none" fill-rule="evenodd">
        <g id="Your-account-(initial-login)" transform="translate(-733.000000, -488.000000)">
            <g id="Popup">
                <g id="Best-value" transform="translate(374.000000, 434.000000)">
                    <g id="Group-2" transform="translate(359.000000, 53.667084)">
                        <g id="Page-1" transform="translate(0.003361, 0.359375)">
                            <path d="M93.0879973,85.3113569 C93.0879973,87.1615782 91.5818605,88.6677149 89.7316393,88.6677149 L42.7418412,88.6677149 C40.89162,88.6677149 39.3854832,87.1615782 39.3854832,85.3113569 L39.3854832,18.1832537 C39.3854832,16.3330325 40.89162,14.8268958 42.7418412,14.8268958 L77.2827655,14.8268958 L93.0879973,30.6255195 L93.0879973,85.3113569 Z M95.9526935,28.7441466 L79.1641385,11.9620422 C78.849475,11.6473787 78.4234206,11.4703805 77.9775425,11.4703805 L42.7418412,11.4703805 C39.0395107,11.4703805 36.0289679,14.4809233 36.0289679,18.1832537 L36.0289679,85.3115143 C36.0289679,89.0136874 39.0395107,92.0242302 42.7418412,92.0242302 L89.7316393,92.0242302 C93.4338124,92.0242302 96.4443552,89.0136874 96.4443552,85.3113569 L96.4443552,29.9305853 C96.4443552,29.4848644 96.267357,29.0588101 95.9526935,28.7441466 Z" id="Fill-1" fill="#164377"></path>
                            <path d="M66.4241066,64.1517801 C67.4053847,64.1517801 68.2038432,63.2759143 68.2038432,62.1991359 L68.2038432,45.8662135 L82.1421765,45.8662135 L82.1391872,62.6727044 C82.1391872,71.45449 74.994753,78.5992389 66.2129674,78.5992389 C57.4308671,78.5992389 50.2862756,71.45449 50.2862756,62.6725471 L50.2862756,45.8662135 L55.6844849,45.8662135 L55.6844849,62.7589222 C55.6844849,68.5641486 60.4075836,73.2869327 66.2129674,73.2869327 C72.0185085,73.2869327 76.74145,68.5641486 76.74145,62.7589222 L76.74145,50.9035037 L73.1824487,50.9035037 L73.1824487,62.7589222 C73.1824487,66.6019072 70.0559524,69.7282462 66.2129674,69.7282462 C62.3698251,69.7282462 59.2433288,66.6019072 59.2433288,62.7589222 L59.2433288,42.3073696 L46.727589,42.3073696 L46.727589,62.6725471 C46.727589,73.4168888 55.4686257,82.1579254 66.2129674,82.1579254 C76.9571518,82.1579254 85.6981885,73.4172034 85.6981885,62.6731764 L85.7021218,42.3073696 L64.6449993,42.3073696 L64.6449993,62.1991359 C64.6449993,63.2759143 65.4431432,64.1517801 66.4241066,64.1517801" id="Fill-3" fill="#164377"></path>
                            <path d="M130.900006,53.3206227 L109.974885,53.3206227 C109.106099,53.3206227 108.401567,52.6160912 108.401567,51.7473053 C108.401567,50.8783621 109.106099,50.1739879 109.974885,50.1739879 L130.900006,50.1739879 C131.768792,50.1739879 132.473323,50.8783621 132.473323,51.7473053 C132.473323,52.6160912 131.768792,53.3206227 130.900006,53.3206227" id="Fill-5" fill="#318BF4"></path>
                            <path d="M22.4984385,53.3206227 L1.57331738,53.3206227 C0.70437419,53.3206227 0,52.6160912 0,51.7473053 C0,50.8783621 0.70437419,50.1739879 1.57331738,50.1739879 L22.4984385,50.1739879 C23.3673817,50.1739879 24.0717559,50.8783621 24.0717559,51.7473053 C24.0717559,52.6160912 23.3673817,53.3206227 22.4984385,53.3206227" id="Fill-7" fill="#318BF4"></path>
                            <path d="M30.8590628,17.9430396 C30.4564509,17.9430396 30.0536816,17.7893265 29.7465701,17.482215 L14.9501494,2.68595169 C14.335769,2.07157126 14.335769,1.07534669 14.9501494,0.460808927 C15.5646872,-0.153571509 16.5609118,-0.153571509 17.1752922,0.460808927 L31.9715555,15.2572295 C32.5859359,15.87161 32.5859359,16.8678345 31.9715555,17.482215 C31.6644439,17.7893265 31.2616747,17.9430396 30.8590628,17.9430396" id="Fill-9" fill="#318BF4"></path>
                            <path d="M116.410587,103.494548 C116.007817,103.494548 115.605363,103.340835 115.298094,103.033723 L100.501831,88.2374598 C99.8874502,87.6230793 99.8874502,86.6268548 100.501831,86.0124743 C101.116368,85.3980939 102.112278,85.3980939 102.726816,86.0124743 L117.523079,100.808738 C118.137617,101.423118 118.137617,102.419343 117.523079,103.033723 C117.21581,103.340835 116.813356,103.494548 116.410587,103.494548" id="Fill-11" fill="#318BF4"></path>
                            <path d="M16.0627366,103.494548 C15.6599673,103.494548 15.2575127,103.340835 14.9502438,103.033723 C14.3357061,102.419343 14.3358634,101.423118 14.9502438,100.808738 L29.7465071,86.0124743 C30.3610449,85.3980939 31.3571121,85.3982512 31.9716499,86.0124743 C32.5860303,86.6268548 32.585873,87.6230793 31.9716499,88.2374598 L17.1752293,103.033723 C16.8681177,103.340835 16.4653485,103.494548 16.0627366,103.494548" id="Fill-13" fill="#318BF4"></path>
                            <path d="M101.614339,17.9430396 C101.21157,17.9430396 100.809115,17.7894838 100.501846,17.482215 C99.8873086,16.8678345 99.8873086,15.87161 100.501846,15.2572295 L115.29811,0.460966258 C115.912647,-0.153414177 116.908557,-0.153571509 117.523095,0.460808927 C118.137475,1.07534669 118.137475,2.07157126 117.523095,2.68579436 L102.726832,17.482215 C102.419563,17.7893265 102.017108,17.9430396 101.614339,17.9430396" id="Fill-15" fill="#318BF4"></path>
                        </g>
                    </g>
                </g>
            </g>
        </g>
    </g>
</svg>