<?xml version="1.0" encoding="iso-8859-1"?>
<!-- Generator: Adobe Illustrator 21.1.0, SVG Export Plug-In . SVG Version: 6.00 Build 0)  -->
<svg version="1.1" id="Layer_1" xmlns="http://www.w3.org/2000/svg" xmlns:xlink="http://www.w3.org/1999/xlink" viewBox="0 0 25 25" xml:space="preserve">
<title>Facebook</title>
<desc>Created with Sketch.</desc>
<g id="Elements">
	<g id="Nav" transform="translate(-1402.000000, -61.000000)">
		<g id="Group" transform="translate(1402.750909, 61.463901)">
			<g id="Facebook" transform="translate(0.000000, 0.162791)">
				<g id="Clip-2">
				</g>
				<defs>
					<filter id="Adobe_OpacityMaskFilter" filterUnits="userSpaceOnUse" x="0" y="0" width="23.814" height="23.814">
						<feColorMatrix  type="matrix" values="1 0 0 0 0  0 1 0 0 0  0 0 1 0 0  0 0 0 1 0"/>
					</filter>
				</defs>
				<mask maskUnits="userSpaceOnUse" x="0" y="0" width="23.814" height="23.814" id="mask-2">
					<g style="filter:url(#Adobe_OpacityMaskFilter);">
						<polygon id="path-1" style="fill:#FFFFFF;" points="0,23.814 23.814,23.814 23.814,0 0,0 						"/>
					</g>
				</mask>
				<path id="Fill-1" style="mask:url(#mask-2);fill:#FFFFFF;" d="M14.727,8.228h-1.79c-0.212,0-0.448,0.278-0.448,0.651v1.293
					h2.238v1.843h-2.238v5.533h-2.113v-5.533H8.46v-1.843h1.916V9.087c0-1.555,1.08-2.82,2.561-2.82h1.79V8.228z M11.907,0
					C5.331,0,0,5.331,0,11.907c0,6.576,5.331,11.907,11.907,11.907s11.907-5.331,11.907-11.907C23.814,5.331,18.483,0,11.907,0z"/>
			</g>
		</g>
	</g>
</g>
</svg>
