<?xml version="1.0" encoding="iso-8859-1"?>
<!-- Generator: Adobe Illustrator 23.0.0, SVG Export Plug-In . SVG Version: 6.00 Build 0)  -->
<svg version="1.1" id="Layer_1" xmlns="http://www.w3.org/2000/svg" xmlns:xlink="http://www.w3.org/1999/xlink" x="0px" y="0px"
	 viewBox="0 0 50 51" style="enable-background:new 0 0 50 51;" xml:space="preserve">
<title>icon-no</title>
<desc>Created with Sketch.</desc>
<g id="Main-Pages">
	<g transform="translate(-874.000000, -951.000000)">
		<g id="Choice-1" transform="translate(586.000000, 923.000000)">
			
				<g id="icon-no" transform="translate(313.000000, 53.500000) rotate(180.000000) translate(-313.000000, -53.500000) translate(288.000000, 28.000000)">
				<g id="Clip-2">
				</g>
				<defs>
					<filter id="Adobe_OpacityMaskFilter" filterUnits="userSpaceOnUse">
						<feColorMatrix  type="matrix" values="1 0 0 0 0  0 1 0 0 0  0 0 1 0 0  0 0 0 1 0"/>
					</filter>
				</defs>
				<mask maskUnits="userSpaceOnUse" id="mask-2_1_">
					<g style="filter:url(#Adobe_OpacityMaskFilter);">
						<polygon id="path-1_1_" style="fill-rule:evenodd;clip-rule:evenodd;fill:#FFFFFF;" points="0,0 49.971,0 49.971,51 0,51 
													"/>
					</g>
				</mask>
				<path id="Fill-1" style="mask:url(#mask-2_1_);fill-rule:evenodd;clip-rule:evenodd;fill:#FFFFFF;" d="M45.719,33.424
					c-0.452,0.469-0.538,1.184-0.194,1.738c0,0.011,0.441,0.757,0.495,1.781c0.075,1.397-0.602,2.634-2.021,3.69
					c-0.505,0.384-0.709,1.045-0.494,1.642c0,0.011,0.462,1.418-0.29,2.752c-0.72,1.28-2.322,2.197-4.751,2.709
					c-1.946,0.416-4.59,0.49-7.837,0.235h-0.15c-6.912,0.149-13.9-0.747-13.975-0.757H16.49l-1.086-0.128
					c0.064-0.299,0.097-0.619,0.097-0.939V28.806c0-0.459-0.075-0.907-0.204-1.323c0.193-0.715,0.731-2.304,1.999-3.658
					c4.827-3.797,9.546-16.605,9.75-17.16c0.086-0.224,0.108-0.469,0.065-0.715c-0.183-1.194-0.118-2.656,0.14-3.093
					c0.57,0.011,2.107,0.171,3.031,1.44c1.096,1.504,1.054,4.191-0.129,7.753c-1.806,5.429-1.956,8.287-0.527,9.545
					c0.709,0.629,1.655,0.661,2.343,0.416c0.656-0.149,1.279-0.277,1.87-0.373c0.043-0.011,0.097-0.021,0.14-0.032
					c3.3-0.714,9.213-1.152,11.266,0.704c1.741,1.578,0.505,3.669,0.366,3.893c-0.398,0.597-0.28,1.376,0.258,1.856
					c0.011,0.011,1.139,1.067,1.193,2.485C47.106,31.494,46.654,32.464,45.719,33.424z M4.472,47.705
					c-0.871,0-1.569-0.704-1.569-1.557V28.806c0-0.864,0.71-1.557,1.569-1.557h6.557c0.871,0,1.569,0.704,1.569,1.557v17.331
					c0,0.864-0.71,1.557-1.569,1.557H4.472V47.705z M48.471,34.672c1.054-1.333,1.559-2.762,1.494-4.234
					c-0.065-1.621-0.795-2.89-1.397-3.669c0.699-1.728,0.967-4.447-1.365-6.559c-1.709-1.546-4.612-2.24-8.632-2.048
					c-2.827,0.128-5.192,0.651-5.289,0.672h-0.011c-0.538,0.096-1.107,0.213-1.688,0.341c-0.043-0.683,0.075-2.378,1.344-6.196
					c1.505-4.543,1.419-8.02-0.28-10.345C30.863,0.192,28.014,0,27.176,0c-0.806,0-1.548,0.331-2.075,0.939
					c-1.193,1.376-1.054,3.914-0.903,5.087c-1.419,3.775-5.396,13.033-8.761,15.603c-0.064,0.043-0.118,0.096-0.172,0.149
					c-0.989,1.034-1.656,2.154-2.107,3.136c-0.634-0.341-1.354-0.533-2.128-0.533H4.472C2,24.38,0,26.375,0,28.817v17.331
					c0,2.453,2.01,4.437,4.472,4.437h6.557c0.957,0,1.849-0.299,2.58-0.81l2.526,0.299c0.387,0.053,7.267,0.917,14.33,0.779
					C31.744,50.947,32.948,51,34.066,51c1.924,0,3.601-0.149,4.999-0.448c3.289-0.693,5.536-2.08,6.676-4.117
					c0.871-1.557,0.871-3.104,0.731-4.085c2.139-1.92,2.516-4.042,2.44-5.535C48.869,35.952,48.675,35.216,48.471,34.672z"/>
			</g>
		</g>
	</g>
</g>
</svg>
