<?xml version="1.0" encoding="iso-8859-1"?>
<!-- Generator: Adobe Illustrator 23.0.0, SVG Export Plug-In . SVG Version: 6.00 Build 0)  -->
<svg version="1.1" id="Layer_1" xmlns="http://www.w3.org/2000/svg" xmlns:xlink="http://www.w3.org/1999/xlink" x="0px" y="0px"
	 viewBox="0 0 51 50" style="enable-background:new 0 0 51 50;" xml:space="preserve">
<title>icon-australia</title>
<desc>Created with Sketch.</desc>
<g id="Main-Pages">
	<g transform="translate(-975.000000, -924.000000)">
		<g id="Group-4" transform="translate(525.000000, 826.000000)">
			<g id="icon-australia" transform="translate(450.000000, 98.000000)">
				<path id="Fill-1" style="fill-rule:evenodd;clip-rule:evenodd;fill:#24B28A;" d="M42.807,45.625
					c-0.01,0.023-0.032,0.067-0.049,0.1c-0.074,0.144-0.176,0.342-0.225,0.605c-0.057,0.303-0.028,0.577-0.007,0.777
					c0.007,0.07,0.017,0.164,0.015,0.203c-0.122,0.482-0.424,0.634-0.657,0.677c-0.29,0.053-0.732-0.035-1.026-0.46l-0.143-0.207
					c-0.566-0.817-1.342-1.936-1.578-2.749c-0.004-0.014-0.008-0.028-0.011-0.041c0.028,0.003,0.059,0.007,0.095,0.013
					c0.301,0.053,0.578,0.127,0.872,0.204c0.736,0.193,1.567,0.412,2.641,0.221C42.793,45.114,42.84,45.387,42.807,45.625
					 M44.768,45.951c0.124-0.795-0.047-1.878-0.709-2.505c-0.437-0.414-1.015-0.571-1.629-0.443
					c-0.665,0.128-1.154-0.001-1.831-0.179c-0.304-0.08-0.649-0.171-1.029-0.238c-1.127-0.201-1.738,0.263-2.002,0.556
					c-0.258,0.287-0.646,0.927-0.34,1.982c0.326,1.124,1.209,2.398,1.853,3.327l0.141,0.204c0.582,0.843,1.524,1.334,2.499,1.334
					c0.174,0,0.349-0.016,0.523-0.048c1.115-0.205,1.948-1.017,2.231-2.172c0.083-0.339,0.051-0.645,0.028-0.869
					c-0.007-0.064-0.016-0.148-0.016-0.188c0.01-0.022,0.027-0.054,0.039-0.079C44.604,46.483,44.721,46.254,44.768,45.951"/>
				<g id="Group-5" transform="translate(0.000000, 0.088668)">
					<g id="Clip-4">
					</g>
					<defs>
						<filter id="Adobe_OpacityMaskFilter" filterUnits="userSpaceOnUse" x="0" y="0.011" width="50.901" height="41.135">
							<feColorMatrix  type="matrix" values="1 0 0 0 0  0 1 0 0 0  0 0 1 0 0  0 0 0 1 0"/>
						</filter>
					</defs>
					<mask maskUnits="userSpaceOnUse" x="0" y="0.011" width="50.901" height="41.135" id="mask-2_1_">
						<g style="filter:url(#Adobe_OpacityMaskFilter);">
							<polygon id="path-1_1_" style="fill-rule:evenodd;clip-rule:evenodd;fill:#FFFFFF;" points="0,0.011 50.901,0.011 
								50.901,41.145 0,41.145 							"/>
						</g>
					</mask>
					<path id="Fill-3" style="mask:url(#mask-2_1_);fill-rule:evenodd;clip-rule:evenodd;fill:#24B28A;" d="M50.87,24.595
						c-0.013-0.228-0.026-0.443-0.026-0.628c0-1.166-0.05-2.124-0.301-3.296c-0.006-0.102,0.058-0.381,0.1-0.567
						c0.138-0.604,0.328-1.431-0.172-2.11c-0.44-0.598-1.107-0.732-1.593-0.83c-0.203-0.041-0.509-0.102-0.574-0.176l-2.173-2.478
						c-0.286-0.326-0.438-0.716-0.613-1.167c-0.276-0.71-0.62-1.593-1.588-2.3l-0.135-0.098c-1.151-0.839-1.846-1.346-2.256-2.562
						c-0.089-0.264-0.162-0.607-0.24-0.971c-0.202-0.94-0.431-2.006-1.117-2.754c-0.303-0.33-0.612-0.513-0.861-0.66
						c-0.276-0.163-0.36-0.218-0.449-0.391c-0.15-0.293-0.262-0.657-0.381-1.043c-0.064-0.209-0.131-0.425-0.206-0.637
						c-0.418-1.179-1.182-1.895-2.044-1.914c-0.443-0.005-1.265,0.167-1.79,1.461c-0.512,1.259-0.436,2.538-0.37,3.667
						c0.052,0.881,0.101,1.713-0.116,2.452c-0.031,0.105-0.116,0.355-0.24,0.399c-0.21,0.075-0.737-0.068-1.341-0.484
						c-0.228-0.157-0.487-0.312-0.762-0.476c-0.613-0.367-1.539-0.92-1.72-1.377c-0.011-0.157,0.25-0.616,0.39-0.863
						c0.345-0.608,0.775-1.365,0.546-2.188c-0.136-0.487-0.469-0.883-0.99-1.176c-0.832-0.467-1.942-0.509-2.923-0.547
						c-0.349-0.013-0.678-0.026-0.93-0.057c-1.429-0.175-2.944-0.139-4.33,1.308c-0.226,0.235-0.441,0.518-0.668,0.817
						c-0.341,0.449-0.976,1.283-1.326,1.293c-0.179,0.005-0.419-0.092-0.694-0.205c-0.456-0.186-1.022-0.418-1.737-0.36
						c-1.038,0.084-1.789,0.585-2.387,1.064c-0.91,0.729-1.786,1.522-2.633,2.29l-0.287,0.26c-0.051,0.046-0.102,0.091-0.154,0.136
						c-0.324,0.284-0.727,0.637-0.982,1.2c-0.193,0.424-0.257,0.824-0.309,1.145c-0.078,0.484-0.114,0.603-0.31,0.761
						c-0.357,0.288-0.971,0.484-1.566,0.674c-0.256,0.082-0.521,0.167-0.768,0.26c-0.39,0.148-0.803,0.286-1.24,0.432
						c-2.174,0.728-4.88,1.634-5.765,4.358c-0.048,0.149-0.101,0.304-0.155,0.464c-0.323,0.954-0.724,2.142-0.681,3.223
						c0.044,1.095,0.641,1.994,1.168,2.787c0.181,0.272,0.351,0.529,0.482,0.767c0.452,0.827,0.458,1.545,0.467,2.455
						c0.005,0.535,0.01,1.14,0.119,1.8c0.065,0.395,0.22,0.727,0.344,0.994c0.101,0.216,0.196,0.419,0.18,0.523
						c-0.017,0.114-0.186,0.358-0.308,0.537c-0.174,0.252-0.371,0.538-0.499,0.878c-0.26,0.687-0.137,1.21,0.013,1.527
						c0.384,0.814,1.286,1.12,2.01,1.365c0.13,0.044,0.259,0.088,0.383,0.134c1.829,0.679,3.137,0.072,4.291-0.463
						c0.375-0.174,0.764-0.354,1.172-0.495c0.558-0.192,1.157-0.228,1.792-0.266c0.343-0.021,0.697-0.042,1.066-0.088
						c1.369-0.17,2.688-0.677,4.151-1.596c1.776-1.115,3.529-1.547,5.21-1.283c1.631,0.255,2.944,1.094,4.392,2.802
						c0.727,0.858,1.421,1.388,2.319,1.771c0.169,0.072,0.33,0.114,0.46,0.148c0.041,0.321,0.185,0.81,0.756,1.122
						c0.615,0.336,1.213,0.163,1.571,0.059c0.055-0.016,0.127-0.037,0.184-0.05c0.096,0.161,0.201,0.538,0.268,0.776
						c0.142,0.508,0.304,1.083,0.671,1.547c0.731,0.924,1.76,1.516,3.059,1.758c0.112,0.021,0.209,0.036,0.294,0.05
						c0.06,0.01,0.133,0.021,0.17,0.029c0.01,0.007,0.025,0.02,0.047,0.04c0.035,0.052,0.099,0.181,0.142,0.268
						c0.187,0.38,0.443,0.9,1,1.153c0.233,0.106,0.47,0.158,0.699,0.158c0.333,0,0.652-0.111,0.925-0.329
						c0.297-0.238,0.472-0.543,0.627-0.812c0.063-0.109,0.157-0.273,0.208-0.325c0.126-0.08,0.165-0.083,0.547,0.01
						c0.28,0.068,0.63,0.154,1.054,0.131c0.944-0.05,1.441-0.634,1.737-0.983c0.209-0.245,0.281-0.316,0.391-0.341
						c0.155-0.036,0.311-0.057,0.476-0.08c0.622-0.086,1.475-0.204,2.149-1.203c0.523-0.775,0.515-1.603,0.508-2.269
						c-0.001-0.071-0.001-0.142-0.001-0.213c0-0.574,0.083-0.726,0.432-1.367l0.069-0.127c0.262-0.482,0.083-1.086-0.399-1.348
						c-0.483-0.262-1.086-0.083-1.348,0.399l-0.068,0.124c-0.392,0.718-0.675,1.238-0.675,2.318c0,0.077,0.001,0.155,0.001,0.232
						c0.005,0.544,0,0.889-0.169,1.139c-0.168,0.249-0.245,0.273-0.773,0.346c-0.192,0.027-0.409,0.057-0.649,0.112
						c-0.768,0.177-1.185,0.667-1.46,0.991c-0.239,0.281-0.26,0.282-0.329,0.286c-0.132,0.007-0.284-0.03-0.476-0.077
						c-0.493-0.121-1.239-0.302-2.109,0.259c-0.313,0.202-0.526,0.481-0.686,0.736c-0.114-0.217-0.251-0.442-0.456-0.631
						c-0.472-0.435-0.811-0.516-1.275-0.589c-0.069-0.011-0.148-0.023-0.24-0.041c-0.824-0.154-1.434-0.493-1.864-1.037
						c-0.12-0.151-0.224-0.523-0.316-0.851c-0.181-0.645-0.407-1.448-1.079-1.92c-0.643-0.451-1.298-0.327-1.709-0.215
						c-0.051-0.187-0.146-0.396-0.327-0.59c-0.359-0.384-0.79-0.495-1.074-0.568c-0.07-0.018-0.149-0.038-0.184-0.053
						c-0.619-0.264-1.048-0.597-1.582-1.227c-1.184-1.398-2.891-3.057-5.601-3.481c-2.17-0.34-4.381,0.186-6.575,1.564
						c-1.224,0.769-2.254,1.172-3.339,1.307c-0.307,0.038-0.615,0.057-0.941,0.077c-0.739,0.045-1.504,0.091-2.318,0.37
						c-0.506,0.174-0.962,0.385-1.363,0.572c-1.03,0.478-1.71,0.793-2.762,0.403c-0.142-0.053-0.289-0.103-0.437-0.153
						c-0.241-0.082-0.618-0.209-0.798-0.317c0.046-0.115,0.162-0.282,0.274-0.445c0.245-0.357,0.551-0.801,0.636-1.368
						c0.105-0.696-0.155-1.252-0.344-1.658c-0.084-0.181-0.164-0.352-0.184-0.476c-0.083-0.51-0.088-0.989-0.093-1.497
						c-0.009-0.996-0.02-2.125-0.71-3.389c-0.171-0.314-0.374-0.619-0.571-0.915c-0.401-0.604-0.816-1.228-0.838-1.767
						c-0.029-0.713,0.293-1.666,0.578-2.507c0.057-0.168,0.112-0.33,0.162-0.486c0.576-1.771,2.485-2.41,4.506-3.087
						c0.436-0.146,0.887-0.297,1.312-0.458c0.198-0.075,0.427-0.148,0.669-0.225c0.733-0.234,1.563-0.499,2.21-1.021
						c0.807-0.651,0.932-1.425,1.023-1.99c0.04-0.246,0.074-0.458,0.157-0.64c0.075-0.164,0.232-0.307,0.483-0.527
						c0.059-0.052,0.118-0.104,0.177-0.157L13.555,8.5c0.825-0.747,1.678-1.52,2.541-2.211c0.535-0.429,0.889-0.6,1.306-0.634
						c0.229-0.017,0.462,0.071,0.824,0.219c0.402,0.164,0.902,0.369,1.501,0.352c1.302-0.035,2.162-1.167,2.854-2.076
						c0.192-0.253,0.374-0.492,0.521-0.646c0.672-0.701,1.316-0.874,2.652-0.71c0.336,0.041,0.706,0.055,1.098,0.07
						c0.718,0.027,1.611,0.061,2.024,0.293c0.006,0.003,0.011,0.007,0.017,0.01c-0.061,0.171-0.223,0.457-0.327,0.641
						c-0.376,0.663-0.892,1.571-0.522,2.543c0.42,1.104,1.606,1.814,2.56,2.384c0.246,0.147,0.479,0.286,0.654,0.407
						c0.655,0.452,1.934,1.145,3.134,0.72c0.499-0.177,1.162-0.618,1.483-1.713c0.314-1.071,0.252-2.117,0.193-3.128
						c-0.058-0.987-0.113-1.92,0.206-2.749c0.047,0.088,0.096,0.193,0.14,0.317c0.061,0.173,0.119,0.36,0.18,0.558
						c0.139,0.45,0.282,0.916,0.511,1.363c0.355,0.694,0.847,0.985,1.207,1.198c0.177,0.105,0.305,0.18,0.408,0.293
						c0.321,0.35,0.49,1.135,0.639,1.828c0.086,0.402,0.175,0.818,0.3,1.188c0.611,1.816,1.704,2.612,2.969,3.534l0.134,0.097
						c0.499,0.364,0.671,0.805,0.908,1.416c0.213,0.547,0.454,1.167,0.971,1.756l2.173,2.478c0.508,0.579,1.184,0.715,1.677,0.814
						c0.094,0.019,0.219,0.044,0.315,0.069c-0.019,0.143-0.065,0.343-0.096,0.478c-0.1,0.436-0.213,0.93-0.108,1.416
						c0.216,1.01,0.259,1.824,0.259,2.89c0,0.242,0.015,0.496,0.029,0.742c0.028,0.49,0.06,1.045-0.042,1.375
						c-0.162,0.525,0.132,1.081,0.656,1.243c0.525,0.162,1.081-0.132,1.243-0.656C50.95,25.997,50.907,25.252,50.87,24.595"/>
				</g>
				<path id="Fill-6" style="fill-rule:evenodd;clip-rule:evenodd;fill:#24B28A;" d="M48.635,28.597
					c-0.424-0.23-1.04-0.141-1.349,0.401l0,0l-0.008,0.014c-0.001,0.002-0.002,0.005-0.004,0.007
					c-0.001,0.002-0.002,0.005-0.004,0.007l-0.007,0.014l0,0c-0.288,0.554-0.027,1.12,0.397,1.35
					c0.143,0.078,0.308,0.119,0.475,0.119c0.329,0,0.669-0.16,0.874-0.52l0,0l0.008-0.014c0.001-0.002,0.002-0.004,0.003-0.006
					c0,0,0-0.001,0-0.001c0.001-0.002,0.002-0.004,0.003-0.006l0.008-0.014l0,0C49.319,29.393,49.059,28.828,48.635,28.597"/>
			</g>
		</g>
	</g>
</g>
</svg>
