<?xml version="1.0" encoding="iso-8859-1"?>
<!-- Generator: Adobe Illustrator 23.0.0, SVG Export Plug-In . SVG Version: 6.00 Build 0)  -->
<svg version="1.1" id="Layer_1" xmlns="http://www.w3.org/2000/svg" xmlns:xlink="http://www.w3.org/1999/xlink" x="0px" y="0px"
	 viewBox="0 0 51 50" style="enable-background:new 0 0 51 50;" xml:space="preserve">
<title>icon-residential</title>
<desc>Created with Sketch.</desc>
<g id="Main-Pages">
	<g transform="translate(-657.000000, -724.000000)">
		<g id="Choice-1" transform="translate(586.000000, 694.000000)">
			<g id="icon-residential" transform="translate(71.000000, 30.000000)">
				<path id="Fill-1" style="fill-rule:evenodd;clip-rule:evenodd;fill:#FFFFFF;" d="M13.6,24.252h8.5v-0.855h-8.5V24.252z
					 M13.6,28.528h8.5v-2.565h-8.5V28.528z M11.9,30.238h11.9v-8.55H11.9V30.238z"/>
				<path id="Fill-2" style="fill-rule:evenodd;clip-rule:evenodd;fill:#FFFFFF;" d="M18.7,37.933h3.4v-2.565h-3.4V37.933z
					 M18.7,42.208h3.4v-2.565h-3.4V42.208z M13.6,42.208H17v-2.565h-3.4V42.208z M13.6,37.933H17v-2.565h-3.4V37.933z M11.9,43.918
					h11.9v-10.26H11.9V43.918z"/>
				<path id="Fill-3" style="fill-rule:evenodd;clip-rule:evenodd;fill:#FFFFFF;" d="M28.9,25.963h8.5v-2.565h-8.5V25.963z
					 M28.9,28.528h8.5v-0.855h-8.5V28.528z M27.2,30.238h11.9v-8.55H27.2V30.238z"/>
				<path id="Fill-4" style="fill-rule:evenodd;clip-rule:evenodd;fill:#FFFFFF;" d="M48.45,46.484h0.85v-2.565h-0.85V46.484z
					 M45.9,46.484h0.85v-2.565H45.9V46.484z M44.2,48.194h-5.1V33.658H27.2v14.536H6.8V23.747L25.5,9.246l18.7,14.501V48.194z
					 M28.9,48.194h8.5V35.368h-8.5V48.194z M4.25,46.484H5.1v-2.565H4.25V46.484z M1.7,46.484h0.85v-2.565H1.7V46.484z
					 M2.475,22.981c-0.327-0.355-0.486-0.816-0.448-1.298c0.038-0.482,0.267-0.912,0.647-1.211l21.67-17.058l1.157-1.082l1.21,1.128
					l21.616,17.012c0.379,0.298,0.609,0.728,0.647,1.211c0.038,0.482-0.121,0.944-0.448,1.298c-0.602,0.652-1.582,0.734-2.283,0.191
					L45.9,22.907L25.5,7.088L5.431,22.65l-0.001,0.001l-0.672,0.521C4.056,23.715,3.077,23.633,2.475,22.981z M50.15,40.498
					c-0.47,0-0.85,0.383-0.85,0.855v0.855h-0.85v-0.855c0-0.472-0.38-0.855-0.85-0.855c-0.47,0-0.85,0.383-0.85,0.855v0.855H45.9
					V24.933c0.443,0.2,0.912,0.31,1.382,0.31c0.912,0,1.818-0.373,2.488-1.098c0.646-0.699,0.973-1.646,0.898-2.598
					c-0.076-0.951-0.547-1.834-1.294-2.422L27.814,2.161L25.5,0l-2.258,2.114L1.626,19.126c-0.747,0.588-1.219,1.471-1.294,2.422
					c-0.075,0.952,0.253,1.898,0.898,2.598c1.015,1.099,2.568,1.377,3.87,0.788v17.275H4.25v-0.855c0-0.472-0.38-0.855-0.85-0.855
					c-0.47,0-0.85,0.383-0.85,0.855v0.855H1.7v-0.855c0-0.472-0.38-0.855-0.85-0.855S0,40.882,0,41.354v7.695
					c0,0.472,0.38,0.855,0.85,0.855S1.7,49.522,1.7,49.05v-0.855h0.85v0.855c0,0.472,0.38,0.855,0.85,0.855
					c0.47,0,0.85-0.383,0.85-0.855v-0.855H5.1v1.71h22.1h11.9h6.8v-1.71h0.85v0.855c0,0.472,0.38,0.855,0.85,0.855
					c0.47,0,0.85-0.383,0.85-0.855v-0.855h0.85v0.855c0,0.472,0.38,0.855,0.85,0.855c0.47,0,0.85-0.383,0.85-0.855v-7.695
					C51,40.881,50.62,40.498,50.15,40.498z"/>
			</g>
		</g>
	</g>
</g>
</svg>
