<?xml version="1.0" encoding="iso-8859-1"?>
<!-- Generator: Adobe Illustrator 23.0.0, SVG Export Plug-In . SVG Version: 6.00 Build 0)  -->
<svg version="1.1" id="Layer_1" xmlns="http://www.w3.org/2000/svg" xmlns:xlink="http://www.w3.org/1999/xlink" x="0px" y="0px"
	 viewBox="0 0 48 46" style="enable-background:new 0 0 48 46;" xml:space="preserve">
<title>icon-emergency</title>
<desc>Created with Sketch.</desc>
<g id="Main-Pages">
	<g transform="translate(-561.000000, -1121.000000)">
		<g id="icon-emergency" transform="translate(561.000000, 1121.000000)">
			<path id="Fill-1" style="fill-rule:evenodd;clip-rule:evenodd;fill:#FFFFFF;" d="M30.562,23c-0.517,0-0.938,0.429-0.938,0.958
				c0,0.529,0.42,0.958,0.938,0.958s0.938-0.429,0.938-0.958C31.5,23.429,31.08,23,30.562,23"/>
			<path id="Fill-3" style="fill-rule:evenodd;clip-rule:evenodd;fill:#FFFFFF;" d="M39.938,44.083H8.062v-2.875
				c0-0.528,0.421-0.958,0.938-0.958h30c0.517,0,0.938,0.43,0.938,0.958V44.083z M15.018,21.185c0.405-2.28,2.344-3.935,4.612-3.935
				h8.741c2.267,0,4.207,1.655,4.612,3.932l2.993,17.152H12.025L15.018,21.185z M39,38.333h-1.12l-3.052-17.492
				c-0.568-3.192-3.284-5.508-6.457-5.508h-8.741c-3.174,0-5.89,2.317-6.457,5.512L10.12,38.333H9c-1.551,0-2.812,1.29-2.812,2.875
				v3.833c0,0.529,0.42,0.958,0.938,0.958h33.75c0.518,0,0.938-0.429,0.938-0.958v-3.833C41.812,39.623,40.551,38.333,39,38.333z"/>
			<path id="Fill-5" style="fill-rule:evenodd;clip-rule:evenodd;fill:#FFFFFF;" d="M33.585,35.287l-1.375-7.739
				c-0.093-0.521-0.581-0.867-1.09-0.772c-0.51,0.095-0.847,0.593-0.755,1.114l1.375,7.739c0.093,0.525,0.585,0.866,1.09,0.772
				C33.34,36.307,33.677,35.808,33.585,35.287"/>
			<path id="Fill-7" style="fill-rule:evenodd;clip-rule:evenodd;fill:#FFFFFF;" d="M47.062,23H39c-0.518,0-0.938,0.429-0.938,0.958
				s0.42,0.958,0.938,0.958h8.062c0.518,0,0.938-0.429,0.938-0.958S47.58,23,47.062,23"/>
			<path id="Fill-9" style="fill-rule:evenodd;clip-rule:evenodd;fill:#FFFFFF;" d="M9,23H0.938C0.42,23,0,23.429,0,23.958
				s0.42,0.958,0.938,0.958H9c0.518,0,0.938-0.429,0.938-0.958S9.518,23,9,23"/>
			<path id="Fill-11" style="fill-rule:evenodd;clip-rule:evenodd;fill:#FFFFFF;" d="M40.573,7.017c-0.366-0.374-0.96-0.374-1.326,0
				l-5.303,5.421c-0.366,0.374-0.366,0.981,0,1.355c0.366,0.374,0.96,0.374,1.326,0l5.303-5.421
				C40.939,7.998,40.939,7.391,40.573,7.017"/>
			<path id="Fill-13" style="fill-rule:evenodd;clip-rule:evenodd;fill:#FFFFFF;" d="M14.056,12.438L8.753,7.017
				c-0.366-0.374-0.96-0.374-1.326,0c-0.366,0.374-0.366,0.981,0,1.355l5.303,5.421c0.366,0.374,0.96,0.374,1.326,0
				C14.422,13.419,14.422,12.812,14.056,12.438"/>
			<path id="Fill-15" style="fill-rule:evenodd;clip-rule:evenodd;fill:#FFFFFF;" d="M24,0c-0.518,0-0.938,0.429-0.938,0.958v7.667
				c0,0.529,0.42,0.958,0.938,0.958s0.938-0.429,0.938-0.958V0.958C24.938,0.429,24.518,0,24,0"/>
		</g>
	</g>
</g>
</svg>
