<?xml version="1.0" encoding="iso-8859-1"?>
<!-- Generator: Adobe Illustrator 23.0.0, SVG Export Plug-In . SVG Version: 6.00 Build 0)  -->
<svg version="1.1" id="Layer_1" xmlns="http://www.w3.org/2000/svg" xmlns:xlink="http://www.w3.org/1999/xlink" x="0px" y="0px"
	 viewBox="0 0 51 51" style="enable-background:new 0 0 51 51;" xml:space="preserve">
<title>icon-business</title>
<desc>Created with Sketch.</desc>
<g id="Main-Pages">
	<g transform="translate(-871.000000, -722.000000)">
		<g id="Choice-1" transform="translate(586.000000, 694.000000)">
			<g id="icon-business" transform="translate(285.000000, 28.000000)">
				<g id="Group-3" transform="translate(13.546875, 8.466797)">
					<g id="Clip-2">
					</g>
					<defs>
						<filter id="Adobe_OpacityMaskFilter" filterUnits="userSpaceOnUse" x="0.053" y="0.033" width="37.4" height="42.5">
							<feColorMatrix  type="matrix" values="1 0 0 0 0  0 1 0 0 0  0 0 1 0 0  0 0 0 1 0"/>
						</filter>
					</defs>
					<mask maskUnits="userSpaceOnUse" x="0.053" y="0.033" width="37.4" height="42.5" id="mask-2_1_">
						<g style="filter:url(#Adobe_OpacityMaskFilter);">
							<polygon id="path-1_1_" style="fill-rule:evenodd;clip-rule:evenodd;fill:#FFFFFF;" points="0.053,0.033 37.453,0.033 
								37.453,42.533 0.053,42.533 							"/>
						</g>
					</mask>
					<path id="Fill-1" style="mask:url(#mask-2_1_);fill-rule:evenodd;clip-rule:evenodd;fill:#24B28A;" d="M34.903,40.833h-6.8
						c-0.468,0-0.85-0.382-0.85-0.85c0-0.468,0.382-0.85,0.85-0.85c0.163,0,0.318,0.047,0.461,0.138
						c0.233,0.15,0.524,0.177,0.78,0.073c0.257-0.104,0.446-0.327,0.508-0.596c0.179-0.774,0.859-1.316,1.651-1.316
						c0.792,0,1.471,0.542,1.651,1.316c0.062,0.269,0.252,0.492,0.508,0.596c0.257,0.104,0.547,0.076,0.78-0.073
						c0.553-0.357,1.312,0.08,1.311,0.712C35.753,40.452,35.371,40.833,34.903,40.833z M17.053,6.833h3.4v-5.1h-3.4V6.833z
						 M17.053,13.633h3.4v-5.1h-3.4V13.633z M17.053,20.433h3.4v-5.1h-3.4V20.433z M17.053,27.233h3.4v-5.1h-3.4V27.233z
						 M17.053,34.033h3.4v-5.1h-3.4V34.033z M17.053,40.833h3.4v-5.1h-3.4V40.833z M11.953,6.833h3.4v-5.1h-3.4V6.833z
						 M11.953,13.633h3.4v-5.1h-3.4V13.633z M11.953,20.433h3.4v-5.1h-3.4V20.433z M11.953,27.233h3.4v-5.1h-3.4V27.233z
						 M11.953,34.033h3.4v-5.1h-3.4V34.033z M11.953,40.833h3.4v-5.1h-3.4V40.833z M6.853,6.833h3.4v-5.1h-3.4V6.833z M6.853,13.633
						h3.4v-5.1h-3.4V13.633z M6.853,20.433h3.4v-5.1h-3.4V20.433z M6.853,27.233h3.4v-5.1h-3.4V27.233z M6.853,34.033h3.4v-5.1h-3.4
						V34.033z M6.853,40.833h3.4v-5.1h-3.4V40.833z M1.753,6.833h3.4v-5.1h-3.4V6.833z M1.753,13.633h3.4v-5.1h-3.4V13.633z
						 M1.753,20.433h3.4v-5.1h-3.4V20.433z M1.753,27.233h3.4v-5.1h-3.4V27.233z M1.753,34.033h3.4v-5.1h-3.4V34.033z M1.753,40.833
						h3.4v-5.1h-3.4V40.833z M22.153,34.033h3.4v-5.1h-3.4V34.033z M22.153,27.233h3.4v-5.1h-3.4V27.233z M22.153,20.433h3.4v-5.1
						h-3.4V20.433z M22.153,13.633h3.4v-5.1h-3.4V13.633z M22.153,6.833h3.4v-5.1h-3.4V6.833z M34.903,37.433
						c-0.147,0-0.293,0.013-0.437,0.038c-0.586-1.056-1.703-1.738-2.963-1.738c-1.26,0-2.376,0.682-2.963,1.738
						c-0.144-0.026-0.29-0.038-0.437-0.038c-1.406,0-2.55,1.144-2.55,2.55c0,0.299,0.061,0.582,0.157,0.85h-3.557v-5.1h4.25
						c0.469,0,0.85-0.381,0.85-0.85v-34c0-0.469-0.381-0.85-0.85-0.85h-25.5c-0.469,0-0.85,0.381-0.85,0.85v40.8
						c0,0.469,0.381,0.85,0.85,0.85h34c1.406,0,2.55-1.144,2.55-2.55C37.453,38.577,36.309,37.433,34.903,37.433z"/>
				</g>
				<g id="Group-6">
					<g id="Clip-5">
					</g>
					<defs>
						<filter id="Adobe_OpacityMaskFilter_1_" filterUnits="userSpaceOnUse" x="0" y="0" width="44.2" height="51">
							<feColorMatrix  type="matrix" values="1 0 0 0 0  0 1 0 0 0  0 0 1 0 0  0 0 0 1 0"/>
						</filter>
					</defs>
					<mask maskUnits="userSpaceOnUse" x="0" y="0" width="44.2" height="51" id="mask-4_1_">
						<g style="filter:url(#Adobe_OpacityMaskFilter_1_);">
							<polygon id="path-3_1_" style="fill-rule:evenodd;clip-rule:evenodd;fill:#FFFFFF;" points="0,0 44.2,0 44.2,51 0,51 							
								"/>
						</g>
					</mask>
					<path id="Fill-4" style="mask:url(#mask-4_1_);fill-rule:evenodd;clip-rule:evenodd;fill:#24B28A;" d="M1.7,41.65
						c0-4.235,1.137-9.35,2.55-9.35s2.55,5.115,2.55,9.35c0,1.406-1.144,2.55-2.55,2.55S1.7,43.056,1.7,41.65 M18.7,5.95V3.4h5.95
						c0.469,0,0.85-0.381,0.85-0.85V1.7h3.4v0.85c0,0.469,0.381,0.85,0.85,0.85h5.95v1.7H21.25c-0.469,0-0.85,0.381-0.85,0.85
						s0.381,0.85,0.85,0.85H42.5v35.257c0,0.469,0.381,0.85,0.85,0.85c0.469,0,0.85-0.381,0.85-0.85V5.95
						c0-0.469-0.381-0.85-0.85-0.85H37.4V2.55c0-0.469-0.381-0.85-0.85-0.85H30.6V0.85C30.6,0.381,30.219,0,29.75,0h-5.1
						c-0.469,0-0.85,0.381-0.85,0.85V1.7h-5.95C17.381,1.7,17,2.081,17,2.55V5.1h-5.95c-0.469,0-0.85,0.381-0.85,0.85V49.3H5.1
						v-3.486c1.937-0.395,3.4-2.112,3.4-4.164c0-0.11-0.048-11.05-4.25-11.05C0.048,30.6,0,41.54,0,41.65
						c0,2.053,1.463,3.769,3.4,4.164V49.3H0.85C0.381,49.3,0,49.681,0,50.15C0,50.619,0.381,51,0.85,51h10.2
						c0.469,0,0.85-0.381,0.85-0.85V6.8h5.95C18.319,6.8,18.7,6.419,18.7,5.95"/>
				</g>
			</g>
		</g>
	</g>
</g>
</svg>
