<?xml version="1.0" encoding="iso-8859-1"?>
<!-- Generator: Adobe Illustrator 23.0.0, SVG Export Plug-In . SVG Version: 6.00 Build 0)  -->
<svg version="1.1" id="Layer_1" xmlns="http://www.w3.org/2000/svg" xmlns:xlink="http://www.w3.org/1999/xlink" x="0px" y="0px"
	 viewBox="0 0 46 44" style="enable-background:new 0 0 46 44;" xml:space="preserve">
<title>icon-sales-team</title>
<desc>Created with Sketch.</desc>
<g id="Main-Pages">
	<g transform="translate(-984.000000, -1125.000000)">
		<g id="icon-sales-team" transform="translate(984.000000, 1125.000000)">
			<g id="Clip-2">
			</g>
			<defs>
				<filter id="Adobe_OpacityMaskFilter" filterUnits="userSpaceOnUse" x="0" y="0" width="45.91" height="43.966">
					<feColorMatrix  type="matrix" values="1 0 0 0 0  0 1 0 0 0  0 0 1 0 0  0 0 0 1 0"/>
				</filter>
			</defs>
			<mask maskUnits="userSpaceOnUse" x="0" y="0" width="45.91" height="43.966" id="mask-2_1_">
				<g style="filter:url(#Adobe_OpacityMaskFilter);">
					<polygon id="path-1_1_" style="fill-rule:evenodd;clip-rule:evenodd;fill:#FFFFFF;" points="0,0 45.91,0 45.91,43.966 
						0,43.966 					"/>
				</g>
			</mask>
			<path id="Fill-1" style="mask:url(#mask-2_1_);fill-rule:evenodd;clip-rule:evenodd;fill:#FFFFFF;" d="M23.82,42.203v-4.707
				c3.302-0.226,5.7-1.737,5.7-3.725v-1.52c3.345,0.695,13.903,3.421,14.615,9.952H23.82z M18.12,33.78v-0.026v-2.97
				c1.444,0.669,3.022,1.002,4.614,0.973h0.434c1.592,0.029,3.17-0.303,4.614-0.973v2.996c0,0.825-1.886,2.015-4.831,2.015
				S18.12,34.605,18.12,33.78z M22.082,42.177H1.767c0.686-6.521,11.296-9.248,14.615-9.952v1.554c0,1.971,2.398,3.473,5.7,3.725
				V42.177z M25.558,25.678c0,0.427-0.346,0.773-0.773,0.773s-0.773-0.346-0.773-0.773c0-0.427,0.346-0.773,0.773-0.773
				S25.558,25.251,25.558,25.678z M14.322,20.693l0.035,0.009c0.002-0.214-0.076-0.421-0.217-0.582
				c-1.19-1.363-1.738-2.605-1.59-3.63c0.071-0.571,0.353-1.094,0.791-1.468c1.147,0,5.213-0.217,7.82-2.466
				c2.936,1.687,6.259,2.584,9.645,2.605c0.582,0,1.173,0,1.79-0.096c0.426,0.363,0.704,0.87,0.782,1.424
				c0.148,1.007-0.4,2.266-1.59,3.63c-0.142,0.16-0.219,0.368-0.217,0.582v0.452l-5.057,2.709c-1.004-0.95-2.587-0.906-3.538,0.097
				c-0.95,1.003-0.907,2.586,0.097,3.536c1.004,0.95,2.587,0.906,3.538-0.097c0.44-0.465,0.686-1.081,0.685-1.721
				c0.004-0.078,0.004-0.156,0-0.234l3.988-2.136c-0.342,1.712-1.148,3.298-2.329,4.585c-1.54,1.482-3.625,2.262-5.761,2.154H22.76
				c-2.131,0.106-4.211-0.67-5.752-2.145C14.262,25.165,14.322,20.737,14.322,20.693z M31.97,13.408
				c-3.646,0.211-7.269-0.699-10.384-2.605c-0.352-0.247-0.833-0.199-1.13,0.113c-1.738,1.867-4.909,2.301-6.439,2.397
				c0.469-6.139,4.188-7.477,7.316-7.477c0.498-0.004,0.995,0.037,1.486,0.122c0.115,0.023,0.233,0.023,0.348,0
				c0.491-0.084,0.988-0.125,1.486-0.122c3.102,0,6.838,1.372,7.273,7.564L31.97,13.408z M12.202,20.528
				c-0.738-0.248-1.382-0.718-1.842-1.346l0.043,0.009c-0.869-1.268-0.947-3.187-0.174-5.723l0.634-0.425
				c0.267-0.178,0.414-0.488,0.382-0.808C11.1,9.64,11.945,7.086,13.61,5.089c1.964-2.223,5.118-3.335,9.341-3.352
				c4.223-0.017,7.377,1.129,9.376,3.352c1.665,1.997,2.51,4.551,2.363,7.147c-0.032,0.319,0.115,0.63,0.382,0.808l0.634,0.425
				c0.773,2.527,0.721,4.455-0.174,5.723c-0.463,0.629-1.11,1.099-1.851,1.346c1.048-1.192,1.56-2.762,1.416-4.342
				c-0.163-0.951-0.659-1.813-1.399-2.431c-0.374-8.684-6.465-9.656-9.089-9.656c-0.555-0.002-1.11,0.039-1.66,0.122
				c-0.549-0.083-1.104-0.123-1.66-0.122c-2.607,0-8.689,0.955-9.089,9.656c-0.745,0.614-1.247,1.473-1.416,2.423
				C10.641,17.767,11.153,19.337,12.202,20.528z M29.52,30.48v-0.799c0.226-0.182,0.443-0.382,0.652-0.591
				c1.67-1.837,2.721-4.151,3.006-6.617c1.501-0.228,2.853-1.032,3.771-2.24c1.26-1.78,1.373-4.342,0.322-7.555
				c-0.062-0.185-0.184-0.344-0.348-0.452l-0.478-0.321c0.07-2.899-0.932-5.722-2.815-7.928C31.292,1.346,27.704,0.017,22.951,0
				c-4.744,0-8.342,1.346-10.679,3.942c-1.883,2.206-2.886,5.029-2.815,7.928l-0.478,0.321c-0.163,0.107-0.286,0.266-0.348,0.452
				c-1.051,3.23-0.938,5.775,0.322,7.555c0.914,1.217,2.267,2.03,3.771,2.266c0.287,2.469,1.341,4.787,3.015,6.626
				c0.207,0.208,0.424,0.405,0.652,0.59v0.799c-3.328,0.643-16.614,3.76-16.388,12.617c0,0.48,0.389,0.868,0.869,0.868h44.167
				c0.48,0,0.869-0.389,0.869-0.868C46.134,34.24,32.848,31.123,29.52,30.48z"/>
		</g>
	</g>
</g>
</svg>
