<?xml version="1.0" encoding="iso-8859-1"?>
<!-- Generator: Adobe Illustrator 23.0.0, SVG Export Plug-In . SVG Version: 6.00 Build 0)  -->
<svg version="1.1" id="Layer_1" xmlns="http://www.w3.org/2000/svg" xmlns:xlink="http://www.w3.org/1999/xlink" x="0px" y="0px"
	 viewBox="0 0 46 46" style="enable-background:new 0 0 46 46;" xml:space="preserve">
<title>icon-best-prices</title>
<desc>Created with Sketch.</desc>
<g id="Main-Pages">
	<g transform="translate(-562.000000, -923.000000)">
		<g id="Group-4" transform="translate(525.000000, 826.000000)">
			<g id="icon-best-prices" transform="translate(37.000000, 97.000000)">
				<path id="Fill-1" style="fill-rule:evenodd;clip-rule:evenodd;fill:#24B28A;" d="M23,43.305
					C11.804,43.305,2.695,34.196,2.695,23S11.804,2.695,23,2.695S43.305,11.804,43.305,23S34.196,43.305,23,43.305 M39.264,6.736
					C34.919,2.392,29.144,0,23,0S11.081,2.392,6.736,6.736C2.392,11.081,0,16.856,0,23s2.392,11.919,6.736,16.264
					C11.081,43.608,16.856,46,23,46s11.919-2.392,16.264-6.736C43.608,34.919,46,29.144,46,23S43.608,11.081,39.264,6.736"/>
				<path id="Fill-3" style="fill-rule:evenodd;clip-rule:evenodd;fill:#24B28A;" d="M24.444,21.652h-2.887
					c-1.645,0-2.983-1.338-2.983-2.983c0-1.645,1.338-2.983,2.983-2.983h5.774c0.744,0,1.348-0.603,1.348-1.348
					s-0.603-1.348-1.348-1.348h-2.983v-2.983c0-0.744-0.603-1.348-1.348-1.348c-0.744,0-1.348,0.603-1.348,1.348v2.983h-0.096
					c-3.131,0-5.678,2.547-5.678,5.678s2.547,5.678,5.678,5.678h2.887c1.645,0,2.983,1.338,2.983,2.983s-1.338,2.983-2.983,2.983
					H18.67c-0.744,0-1.348,0.603-1.348,1.348s0.603,1.348,1.348,1.348h2.983v2.983c0,0.744,0.603,1.348,1.348,1.348
					c0.744,0,1.348-0.603,1.348-1.348v-2.983h0.096c3.131,0,5.678-2.547,5.678-5.678S27.574,21.652,24.444,21.652"/>
			</g>
		</g>
	</g>
</g>
</svg>
