<?xml version="1.0" encoding="iso-8859-1"?>
<!-- Generator: Adobe Illustrator 21.1.0, SVG Export Plug-In . SVG Version: 6.00 Build 0)  -->
<svg version="1.1" id="Layer_1" xmlns="http://www.w3.org/2000/svg" xmlns:xlink="http://www.w3.org/1999/xlink" viewBox="0 0 25 25" xml:space="preserve">
<title>Instagram</title>
<desc>Created with Sketch.</desc>
<g id="Elements">
	<g id="Nav" transform="translate(-1512.000000, -61.000000)">
		<g id="Group" transform="translate(1402.750909, 61.463901)">
			<g id="Instagram" transform="translate(110.159641, 0.162791)">
				<g id="Group-3" transform="translate(0.000000, 0.213681)">
					<g id="Clip-2">
					</g>
					<defs>
						<filter id="Adobe_OpacityMaskFilter" filterUnits="userSpaceOnUse" x="0" y="0.034" width="23.78" height="23.78">
							<feColorMatrix  type="matrix" values="1 0 0 0 0  0 1 0 0 0  0 0 1 0 0  0 0 0 1 0"/>
						</filter>
					</defs>
					<mask maskUnits="userSpaceOnUse" x="0" y="0.034" width="23.78" height="23.78" id="mask-2">
						<g style="filter:url(#Adobe_OpacityMaskFilter);">
							<polygon id="path-1" style="fill:#FFFFFF;" points="0,23.814 0,0.034 23.78,0.034 23.78,23.814 							"/>
						</g>
					</mask>
					<path id="Fill-1" style="mask:url(#mask-2);fill:#FFFFFF;" d="M11.89,0.034c-3.229,0-3.634,0.014-4.902,0.071
						c-1.265,0.058-2.13,0.259-2.886,0.553C3.32,0.962,2.656,1.369,1.996,2.03C1.335,2.691,0.928,3.354,0.624,4.136
						C0.33,4.892,0.129,5.756,0.071,7.022C0.014,8.29,0,8.695,0,11.924c0,3.229,0.014,3.634,0.071,4.902
						c0.058,1.266,0.259,2.13,0.553,2.886c0.304,0.782,0.71,1.445,1.371,2.106c0.661,0.661,1.324,1.068,2.106,1.372
						c0.756,0.294,1.621,0.495,2.886,0.552c1.268,0.058,1.673,0.072,4.902,0.072s3.634-0.014,4.902-0.072
						c1.265-0.058,2.13-0.259,2.886-0.552c0.782-0.304,1.445-0.711,2.106-1.372c0.661-0.661,1.067-1.324,1.371-2.106
						c0.294-0.756,0.495-1.621,0.553-2.886c0.058-1.268,0.071-1.673,0.071-4.902c0-3.229-0.014-3.634-0.071-4.902
						c-0.058-1.266-0.259-2.13-0.553-2.886c-0.304-0.782-0.71-1.445-1.371-2.106c-0.661-0.661-1.324-1.067-2.106-1.371
						c-0.756-0.294-1.621-0.495-2.886-0.553C15.524,0.048,15.119,0.034,11.89,0.034 M11.89,2.177c3.175,0,3.551,0.012,4.804,0.069
						c1.159,0.053,1.789,0.247,2.208,0.409c0.555,0.216,0.951,0.474,1.367,0.89c0.416,0.416,0.674,0.812,0.889,1.367
						c0.163,0.419,0.357,1.049,0.41,2.208c0.057,1.254,0.069,1.63,0.069,4.805c0,3.175-0.012,3.551-0.069,4.804
						c-0.053,1.159-0.247,1.789-0.41,2.208c-0.216,0.555-0.473,0.951-0.889,1.367c-0.416,0.416-0.812,0.674-1.367,0.889
						c-0.419,0.163-1.049,0.356-2.208,0.409c-1.254,0.057-1.63,0.069-4.804,0.069s-3.551-0.012-4.804-0.069
						c-1.159-0.053-1.789-0.247-2.208-0.409c-0.555-0.216-0.951-0.473-1.367-0.889c-0.416-0.416-0.674-0.812-0.889-1.367
						c-0.163-0.419-0.357-1.048-0.41-2.208c-0.057-1.254-0.069-1.63-0.069-4.804c0-3.175,0.012-3.551,0.069-4.805
						c0.053-1.159,0.247-1.789,0.41-2.208c0.216-0.555,0.473-0.951,0.889-1.367c0.416-0.416,0.812-0.674,1.367-0.89
						c0.419-0.163,1.049-0.356,2.208-0.409C8.339,2.189,8.715,2.177,11.89,2.177"/>
				</g>
				<path id="Fill-4" style="fill:#FFFFFF;" d="M7.927,12.138c0-2.189,1.774-3.963,3.963-3.963s3.963,1.774,3.963,3.963
					s-1.774,3.963-3.963,3.963S7.927,14.327,7.927,12.138z M5.784,12.138c0,3.372,2.733,6.106,6.106,6.106s6.106-2.734,6.106-6.106
					s-2.733-6.106-6.106-6.106S5.784,8.766,5.784,12.138z"/>
				<path id="Fill-6" style="fill:#FFFFFF;" d="M19.663,5.791c0,0.788-0.639,1.427-1.427,1.427c-0.788,0-1.427-0.639-1.427-1.427
					s0.639-1.427,1.427-1.427C19.025,4.364,19.663,5.003,19.663,5.791"/>
			</g>
		</g>
	</g>
</g>
</svg>
