<?xml version="1.0" encoding="UTF-8"?>
<svg width="21px" height="21px" viewBox="0 0 21 21" version="1.1" xmlns="http://www.w3.org/2000/svg" xmlns:xlink="http://www.w3.org/1999/xlink">
    <!-- Generator: Sketch 48.1 (47250) - http://www.bohemiancoding.com/sketch -->
    <title>icon/login-2</title>
    <desc>Created with Sketch.</desc>
    <defs></defs>
    <g id="icon/login-2" stroke="none" stroke-width="1" fill="none" fill-rule="evenodd" transform="translate(-1.928244, -2.000000)">
        <path d="M13.8427561,20.5367188 L14.6092989,14.9154078 C14.6757946,14.42298 15.130884,14.0791594 15.6210438,14.1442729 C16.1161777,14.2129328 16.4613854,14.6667139 16.3930159,15.1578809 L15.520433,21.5562697 C15.4609642,22.0031861 15.0793986,22.3367188 14.6288016,22.3367188 L3.42880157,22.3367188 C3.16839402,22.3367188 2.91969985,22.2239838 2.75257586,22.0301543 C2.58035371,21.8343649 2.50145045,21.5724836 2.53738649,21.3155621 L4.93717019,3.7171678 C4.9966389,3.27025141 5.37820459,2.93671875 5.82880157,2.93671875 L17.0289102,2.93671876 C17.289325,2.93677535 17.5369867,3.04946797 17.7066996,3.24416538 C17.8789388,3.44006065 17.9574146,3.70120695 17.9218159,3.95868088 L17.0491043,10.3580297 C16.9825506,10.8508869 16.526545,11.1959571 16.0345159,11.1287786 C15.5426604,11.060565 15.1986892,10.6076789 15.2653812,10.1156008 L15.9984375,4.73671875 L6.61483962,4.73671875 L4.46002057,20.5367188 L13.8427561,20.5367188 Z M21.8288016,11.7367188 C22.3257439,11.7367188 22.7288016,12.1397764 22.7288016,12.6367188 C22.7288016,13.1336611 22.3257439,13.5367188 21.8288016,13.5367188 L10.8015083,13.5367188 L12.4658201,15.2010307 C12.8167492,15.5524867 12.8167492,16.1217508 12.4637372,16.4752806 C12.2928858,16.6443886 12.0646646,16.7367188 11.8288016,16.7367188 C11.5939432,16.7367188 11.3664555,16.6451573 11.1920482,16.4742721 L7.99097772,13.2731984 C7.90736991,13.189082 7.84122818,13.089257 7.79776011,12.9828591 C7.70554866,12.7618654 7.70554866,12.5131721 7.79636128,12.2955657 C7.84122818,12.1857805 7.90736991,12.0859555 7.99204818,12.0007654 L11.1920482,8.80076536 C11.5433103,8.44950321 12.1134928,8.44950321 12.464755,8.80076536 C12.8160171,9.15202751 12.8160171,9.72220999 12.464755,10.0734721 L10.8015084,11.7367188 L21.8288016,11.7367188 Z" fill="#FFFFFF" fill-rule="nonzero"></path>
    </g>
</svg>