<?xml version="1.0" encoding="iso-8859-1"?>
<!-- Generator: Adobe Illustrator 21.1.0, SVG Export Plug-In . SVG Version: 6.00 Build 0)  -->
<svg version="1.1" id="Layer_1" xmlns="http://www.w3.org/2000/svg" xmlns:xlink="http://www.w3.org/1999/xlink" width="147px" height="34px" viewBox="0 0 147 34" xml:space="preserve">
<title>Page 1</title>
<desc>Created with Sketch.</desc>
<g id="Elements">
	<g id="Nav" transform="translate(0.000000, -55.000000)">
		<g id="Page-1" transform="translate(0.574219, 54.463901)">
			<g id="Group-3" transform="translate(0.000000, 0.593985)">
				<g id="Clip-2">
				</g>
				<defs>
					<filter id="Adobe_OpacityMaskFilter" filterUnits="userSpaceOnUse" x="0.001" y="0.084" width="32.747" height="33.46">
						<feColorMatrix  type="matrix" values="1 0 0 0 0  0 1 0 0 0  0 0 1 0 0  0 0 0 1 0"/>
					</filter>
				</defs>
				<mask maskUnits="userSpaceOnUse" x="0.001" y="0.084" width="32.747" height="33.46" id="mask-2">
					<g style="filter:url(#Adobe_OpacityMaskFilter);">
						<polygon id="path-1" style="fill:#FFFFFF;" points="0.001,33.543 32.747,33.543 32.747,0.084 0.001,0.084 						"/>
					</g>
				</mask>
				<path id="Fill-1" style="mask:url(#mask-2);fill:#FFFFFF;" d="M32.744,17.171c0,9.028-7.344,16.373-16.373,16.373
					S0.001,26.2,0.001,17.171V0.084h11.21v17.157c0,2.844,2.316,5.161,5.161,5.161c2.846,0,5.161-2.316,5.161-5.161V7.08h3.921
					v10.162c0,5.006-4.074,9.082-9.082,9.082c-5.006,0-9.082-4.076-9.082-9.082V4.004H3.92v13.167
					c0,6.866,5.587,12.451,12.451,12.451c6.866,0,12.451-5.585,12.451-12.451l0.002-13.167h-10.32v12.783
					c0,1.159-0.879,2.1-1.961,2.1c-1.083,0-1.961-0.941-1.961-2.1V0.084h18.164L32.744,17.171z"/>
			</g>
			<path id="Fill-4" style="fill:#FFFFFF;" d="M52.017,13.129c2.088,0,3.69-1.677,3.69-3.878c0-2.05-1.602-3.616-3.69-3.616h-4.473
				v7.494H52.017z M42.697,1.759c0-0.374,0.299-0.709,0.708-0.709h8.762c4.585,0,8.349,3.728,8.349,8.238
				c0,4.624-3.764,8.389-8.312,8.389h-4.659v8.76c0,0.372-0.335,0.708-0.709,0.708h-3.43c-0.409,0-0.708-0.335-0.708-0.708V1.759z"
				/>
			<path id="Fill-6" style="fill:#FFFFFF;" d="M75.767,22.671c4.698,0,8.574-3.839,8.574-8.537s-3.876-8.611-8.574-8.611
				s-8.537,3.913-8.537,8.611S71.07,22.671,75.767,22.671 M75.767,0.678c7.455,0,13.421,6.001,13.421,13.456
				s-5.966,13.384-13.421,13.384s-13.382-5.929-13.382-13.384S68.312,0.678,75.767,0.678"/>
			<path id="Fill-8" style="fill:#FFFFFF;" d="M93.009,1.758c0-0.374,0.335-0.709,0.708-0.709h3.467
				c0.374,0,0.708,0.335,0.708,0.709v24.678c0,0.374-0.334,0.709-0.708,0.709h-3.467c-0.372,0-0.708-0.335-0.708-0.709V1.758z"/>
			<path id="Fill-10" style="fill:#FFFFFF;" d="M103.244,1.349c0-0.374,0.334-0.671,0.708-0.671h0.559
				c0.262,0,0.448,0.074,0.634,0.26l15.209,16.217h0.075V1.758c0-0.374,0.299-0.709,0.708-0.709h3.43
				c0.374,0,0.709,0.335,0.709,0.709v25.089c0,0.372-0.335,0.671-0.709,0.671h-0.522c-0.262,0-0.446-0.074-0.634-0.262
				l-15.284-16.851h-0.074v16.03c0,0.374-0.3,0.709-0.709,0.709h-3.391c-0.374,0-0.708-0.335-0.708-0.709V1.349z"/>
			<path id="Fill-12" style="fill:#FFFFFF;" d="M134.59,5.524h-5.702c-0.411,0-0.708-0.335-0.708-0.709V1.759
				c0-0.374,0.297-0.709,0.708-0.709h16.289c0.413,0,0.709,0.335,0.709,0.709v3.056c0,0.374-0.297,0.709-0.709,0.709h-5.702v20.913
				c0,0.372-0.335,0.709-0.708,0.709h-3.467c-0.374,0-0.709-0.337-0.709-0.709V5.524z"/>
		</g>
	</g>
</g>
</svg>
