<?xml version="1.0" encoding="utf-8"?>
<!-- Generator: Adobe Illustrator 23.0.1, SVG Export Plug-In . SVG Version: 6.00 Build 0)  -->
<svg version="1.1" id="Layer_1" xmlns="http://www.w3.org/2000/svg" xmlns:xlink="http://www.w3.org/1999/xlink" x="0px" y="0px"
	 viewBox="0 0 361 82" style="enable-background:new 0 0 361 82;" xml:space="preserve">
<style type="text/css">
	.st0{fill:#FFFFFF;}
</style>
<path class="st0" d="M94.2,53.6c-2,0-3.1,1-3.1,2.7v2.3c0,1.7,1.2,2.7,3.1,2.7c2,0,3.2-1,3.2-2.7v-2.3
	C97.4,54.6,96.2,53.6,94.2,53.6z M96.1,58.5c0,1-0.7,1.5-1.9,1.5c-1.2,0-1.9-0.6-1.9-1.5v-2.3c0-1,0.7-1.5,1.9-1.5
	c1.2,0,1.9,0.6,1.9,1.5V58.5z M144.9,70.6c-2.1,0-3.2,1.1-3.2,3v1.7c0,1.7,0.9,2.9,3.1,2.9c1.6,0,2.5-0.6,3-1.4
	c0.2-0.2,0.1-0.4-0.1-0.5l-0.4-0.2c-0.3-0.1-0.4-0.1-0.5,0.1c-0.4,0.6-1,1-1.9,1c-1.2,0-1.9-0.6-1.9-1.7v-0.7h4.6
	c0.4,0,0.5-0.2,0.5-0.5v-0.8C148.1,71.8,147.1,70.6,144.9,70.6z M146.8,73.8H143v-0.4c0-1.1,0.7-1.8,1.9-1.8c1.3,0,1.9,0.7,1.9,1.8
	V73.8z M89.6,51.1H84c-0.3,0-0.4,0.1-0.4,0.4v9.2c0,0.3,0.1,0.4,0.4,0.4h0.6c0.3,0,0.4-0.1,0.4-0.4v-3.9H89c0.3,0,0.4-0.1,0.4-0.4
	v-0.5c0-0.3-0.1-0.4-0.4-0.4H85v-3.2h4.6c0.3,0,0.4-0.1,0.4-0.4v-0.5C90,51.2,89.9,51.1,89.6,51.1z M96.5,70.8h-0.6
	c-0.3,0-0.3,0.1-0.3,0.3v6.6c0,0.3,0.1,0.3,0.3,0.3h0.6c0.3,0,0.3-0.1,0.3-0.3v-6.6C96.8,70.9,96.7,70.8,96.5,70.8z M148.5,8.6
	l2.1-0.3l0-5.1l-12,1.5l0.1,4.6l2.7-0.2c0,1.1,0.1,2.1,0.1,2.9c0.1,2.7,0.2,4.5,0.1,7.9c0,0.3,0,0.7,0,1c0,3.2-0.1,6.8-4.7,6.9
	l-0.1,0c-4.2,0-4.3-3.4-4.4-6.5l0-0.1c-0.2-3.8-0.1-6.1,0-9.6c0-0.6,0-1.3,0.1-2l2.9-0.2L135,5l-12.9,1.4l0,4l2.2-0.2
	c0,1,0,1.7,0,2.5c0,1.4,0.1,3.1-0.2,8c-0.3,7,3.2,10.5,11.5,11.3c1.4,0.1,2.7,0.2,3.9,0.2h0c9,0,9-4.3,9.1-10.2
	c0.1-3.7,0-7.1-0.1-9.9C148.5,10.7,148.5,9.5,148.5,8.6z M148.2,51.1h-0.5c-0.3,0-0.4,0.1-0.5,0.3l-3.2,5.7l-3.2-5.7
	c-0.1-0.2-0.2-0.3-0.5-0.3h-0.5c-0.3,0-0.4,0.1-0.4,0.4v9.2c0,0.3,0.1,0.4,0.4,0.4h0.5c0.3,0,0.4-0.1,0.4-0.4v-5.1
	c0-0.8-0.1-1.6-0.2-2.6h0.1c0.3,1,0.6,1.6,1,2.3l1.8,3.2c0.1,0.2,0.2,0.3,0.4,0.3h0.3c0.2,0,0.3-0.1,0.4-0.3l1.8-3.2
	c0.4-0.7,0.8-1.4,1.1-2.4h0.1c-0.2,1-0.3,1.8-0.3,2.6v5.1c0,0.3,0.1,0.4,0.4,0.4h0.6c0.3,0,0.4-0.1,0.4-0.4v-9.2
	C148.6,51.2,148.5,51.1,148.2,51.1z M96.2,68.1L96.2,68.1c-0.6,0-0.8,0.2-0.8,0.7v0.1c0,0.5,0.2,0.7,0.7,0.7h0.1
	c0.5,0,0.7-0.2,0.7-0.7v-0.1C96.9,68.3,96.7,68.1,96.2,68.1z M124.6,60.7v-5.4c0-0.1,0-0.2,0.2-0.3c0.4-0.1,0.9-0.2,1.6-0.2h0.5
	c0.3,0,0.3-0.1,0.3-0.3v-0.5c0-0.3-0.1-0.3-0.3-0.3h-0.4c-1.2,0-2,0.2-2.6,0.4c-0.4,0.2-0.5,0.4-0.5,0.8v5.9c0,0.3,0.1,0.3,0.3,0.3
	h0.6C124.6,61,124.6,60.9,124.6,60.7z M132.9,70.8H131v-1.3c0-0.3-0.1-0.3-0.3-0.3h-0.6c-0.3,0-0.3,0.1-0.3,0.3v1.3h-1.2
	c-0.3,0-0.3,0.1-0.3,0.3v0.5c0,0.3,0.1,0.3,0.3,0.3h1.2v3.3c0,2.3,0.8,3,3.1,3c0.3,0,0.3-0.1,0.3-0.3v-0.5c0-0.3-0.1-0.3-0.3-0.3
	c-1.4,0-1.8-0.3-1.8-1.8v-3.3h1.8c0.2,0,0.3-0.1,0.3-0.3v-0.5C133.2,70.9,133.1,70.8,132.9,70.8z M119.7,70.6
	c-1.4,0-2.4,0.5-2.8,1.5c-0.1,0.3-0.1,0.4,0.2,0.5l0.4,0.2c0.3,0.1,0.3,0.1,0.5-0.2c0.3-0.6,0.9-0.9,1.7-0.9c1.3,0,1.7,0.7,1.7,1.7
	v0.5c-0.2,0-0.9-0.1-1.6-0.1c-2.2,0-3.1,0.6-3.1,2.2c0,1.4,0.6,2.2,3.1,2.2c1.1,0,1.9-0.1,2.4-0.4c0.4-0.2,0.5-0.3,0.5-0.8v-3.7
	C122.6,71.8,122,70.6,119.7,70.6z M121.3,76.7c0,0.2,0,0.2-0.2,0.3c-0.3,0.1-0.8,0.2-1.6,0.2c-1.4,0-1.7-0.4-1.7-1.2
	c0-0.8,0.4-1.2,1.7-1.2c0.7,0,1.5,0.1,1.7,0.1V76.7z M114.1,56.8c-1.2-0.1-1.9-0.2-1.9-1.1c0-0.7,0.5-1,1.6-1s1.5,0.4,1.8,0.9
	c0.1,0.2,0.2,0.3,0.5,0.2l0.5-0.2c0.2-0.1,0.3-0.2,0.2-0.5c-0.4-0.9-1.3-1.5-2.9-1.5c-1.9,0-2.8,0.9-2.8,2.2c0,1.8,1.4,2,2.8,2.2
	c1.2,0.1,1.9,0.3,1.9,1.1c0,0.7-0.6,1.1-1.8,1.1c-1,0-1.6-0.3-1.9-1c-0.1-0.3-0.2-0.3-0.4-0.2l-0.5,0.2c-0.3,0.1-0.3,0.2-0.2,0.4
	c0.4,1.1,1.5,1.7,3.1,1.7c2,0,2.9-0.9,2.9-2.2C116.8,57.3,115.7,57,114.1,56.8z M127.8,70.6h-0.4c-1.2,0-2,0.2-2.6,0.4
	c-0.4,0.2-0.5,0.3-0.5,0.8v5.9c0,0.3,0.1,0.3,0.3,0.3h0.6c0.3,0,0.3-0.1,0.3-0.3v-5.4c0-0.1,0-0.2,0.2-0.3c0.4-0.1,0.9-0.2,1.6-0.2
	h0.5c0.3,0,0.3-0.1,0.3-0.3v-0.5C128.1,70.7,128,70.6,127.8,70.6z M137.5,70.6c-1.3,0-2.1,0.3-2.7,0.5c-0.4,0.2-0.5,0.4-0.5,0.8v5.8
	c0,0.3,0.1,0.3,0.3,0.3h0.6c0.3,0,0.3-0.1,0.3-0.3v-5.4c0-0.1,0-0.2,0.2-0.3c0.4-0.1,0.9-0.3,1.6-0.3c1.2,0,1.8,0.6,1.8,1.7v4.3
	c0,0.3,0.1,0.3,0.3,0.3h0.6c0.3,0,0.3-0.1,0.3-0.3v-4.3C140.3,71.6,139.4,70.6,137.5,70.6z M133.9,53.8h-0.6c-0.3,0-0.3,0.1-0.3,0.3
	v5.4c-0.4,0.1-1,0.3-1.8,0.3c-1.2,0-1.8-0.6-1.8-1.7v-4c0-0.3-0.1-0.3-0.3-0.3h-0.6c-0.3,0-0.3,0.1-0.3,0.3v4.1
	c0,1.8,0.9,2.8,2.8,2.8c0.9,0,1.5-0.2,2-0.3v0.8c0,1.2-0.6,1.8-1.8,1.8c-0.9,0-1.4-0.4-1.7-0.9c-0.2-0.2-0.3-0.3-0.5-0.1l-0.4,0.2
	c-0.3,0.1-0.3,0.3-0.1,0.5c0.5,0.9,1.3,1.4,2.8,1.4c2.2,0,3-1.2,3-3v-7.2C134.2,53.9,134.2,53.8,133.9,53.8z M101.7,70.6
	c-1.3,0-2.1,0.3-2.7,0.5c-0.4,0.2-0.5,0.4-0.5,0.8v5.8c0,0.3,0.1,0.3,0.3,0.3h0.6c0.3,0,0.3-0.1,0.3-0.3v-5.4c0-0.1,0-0.2,0.2-0.3
	c0.4-0.1,0.9-0.3,1.6-0.3c1.2,0,1.8,0.6,1.8,1.7v4.3c0,0.3,0.1,0.3,0.3,0.3h0.6c0.3,0,0.3-0.1,0.3-0.3v-4.3
	C104.6,71.6,103.7,70.6,101.7,70.6z M109.5,59.2l-0.4-0.2c-0.3-0.1-0.4-0.1-0.5,0.1c-0.3,0.6-1,1-1.9,1c-1.2,0-1.9-0.6-1.9-1.7v-0.7
	h4.6c0.4,0,0.5-0.2,0.5-0.5v-0.8c0-1.7-1-2.9-3.2-2.9c-2.1,0-3.2,1.1-3.2,3v1.7c0,1.7,0.9,2.9,3.1,2.9c1.6,0,2.5-0.6,3-1.4
	C109.7,59.5,109.7,59.3,109.5,59.2z M104.7,56.4c0-1.1,0.7-1.8,1.9-1.8c1.3,0,1.9,0.7,1.9,1.8v0.4h-3.8V56.4z M153,70.6h-0.4
	c-1.2,0-2,0.2-2.6,0.4c-0.4,0.2-0.5,0.3-0.5,0.8v5.9c0,0.3,0.1,0.3,0.3,0.3h0.6c0.3,0,0.3-0.1,0.3-0.3v-5.4c0-0.1,0-0.2,0.2-0.3
	c0.4-0.1,0.9-0.2,1.6-0.2h0.5c0.3,0,0.3-0.1,0.3-0.3v-0.5C153.3,70.7,153.3,70.6,153,70.6z M112.6,70.6c-1.2,0-2,0.2-2.6,0.4v0
	c-0.4,0.2-0.5,0.3-0.5,0.8v9c0,0.3,0.1,0.3,0.3,0.3h0.6c0.3,0,0.3-0.1,0.3-0.3v-2.9c0.4,0.1,1,0.4,1.8,0.4c2,0,3-1,3-2.9v-2
	C115.5,71.6,114.6,70.6,112.6,70.6z M114.2,75.3c0,1.2-0.6,1.8-1.8,1.8c-0.7,0-1.4-0.3-1.7-0.4v-4.5c0-0.2,0-0.2,0.2-0.3
	c0.4-0.1,0.9-0.2,1.5-0.2c1.2,0,1.8,0.6,1.8,1.7V75.3z M95.2,25l0.1,3.6l25.1,1.4v-7.5l-6.1-0.1l0,3.5l-8.7-0.5l-0.1-5.1l2.3,0
	l0.1,2.2l4.8,0.2l0-9l-4.7,0.1v2.3l-2.4-0.1l0.1-4.8l8.4-0.4l0.1,2.9l6.2-0.2l-0.1-7.1L95.3,8.1v3.5l2.7,0.2l-0.1,13.2L95.2,25z
	 M150.3,55c-0.1,0.3-0.1,0.4,0.2,0.5l0.4,0.2c0.3,0.1,0.3,0.1,0.5-0.2c0.3-0.6,0.9-0.9,1.7-0.9c1.3,0,1.7,0.7,1.7,1.7v0.5
	c-0.2,0-0.9-0.1-1.6-0.1c-2.2,0-3.1,0.6-3.1,2.2c0,1.4,0.6,2.2,3.1,2.2c1.1,0,1.9-0.1,2.4-0.4c0.4-0.2,0.5-0.3,0.5-0.8v-3.7
	c0-1.6-0.6-2.8-2.9-2.8C151.7,53.6,150.8,54.1,150.3,55L150.3,55z M154.8,59.7c0,0.2,0,0.2-0.2,0.3c-0.3,0.1-0.8,0.2-1.6,0.2
	c-1.4,0-1.7-0.4-1.7-1.2c0-0.8,0.4-1.2,1.7-1.2c0.7,0,1.5,0.1,1.7,0.1V59.7z M12.4,53.6c-2,0-3.1,1-3.1,2.7v2.3
	c0,1.7,1.2,2.7,3.1,2.7c2,0,3.1-1,3.1-2.7v-2.3C15.6,54.6,14.5,53.6,12.4,53.6z M14.3,58.5c0,1-0.7,1.5-1.9,1.5
	c-1.2,0-1.9-0.6-1.9-1.5v-2.3c0-1,0.7-1.5,1.9-1.5c1.2,0,1.9,0.6,1.9,1.5V58.5z M122,54.9c0.2,0,0.3-0.1,0.3-0.3v-0.5
	c0-0.3-0.1-0.3-0.3-0.3h-1.8v-1.3c0-0.3-0.1-0.3-0.3-0.3h-0.6c-0.3,0-0.3,0.1-0.3,0.3v1.3h-1.2c-0.3,0-0.3,0.1-0.3,0.3v0.5
	c0,0.3,0.1,0.3,0.3,0.3h1.2v3.3c0,2.3,0.8,3,3.1,3c0.3,0,0.3-0.1,0.3-0.3v-0.5c0-0.3-0.1-0.3-0.3-0.3c-1.4,0-1.8-0.3-1.8-1.8v-3.3
	H122z M7.9,58.3l-0.6-0.2c-0.3-0.1-0.4,0-0.5,0.2c-0.3,1-1.1,1.6-2.5,1.6c-1.7,0-2.6-0.9-2.6-2.3v-3.2c0-1.5,0.9-2.3,2.6-2.3
	c1.4,0,2.1,0.5,2.5,1.6C7,53.9,7.1,54,7.3,53.9l0.6-0.2c0.3-0.1,0.3-0.2,0.2-0.5c-0.5-1.5-1.7-2.4-3.8-2.4c-2.5,0-3.9,1.4-3.9,3.6
	v3.2c0,2.2,1.4,3.6,3.9,3.6c2.1,0,3.3-0.9,3.8-2.4C8.3,58.5,8.2,58.4,7.9,58.3z M13.3,32.2c0.6,0,1.3,0,1.9-0.1
	c6.5-0.5,10.8-3.8,12.8-9.7l0.1-0.2h-7.9l0,0.1c-0.3,2.9-2.3,5.1-5.3,5.4c-0.2,0-0.3,0-0.5,0c-3.6,0-5-4.9-5.1-9.5
	c0-1.4,0.1-6.3,2.4-8.6c0.9-0.9,1.9-1.3,3.2-1.2c3.1,0.3,5.5,2.6,5.7,5.8l0,0.1l7,0.6l0-8.8l-6.5-0.7l-0.1,1.7
	c-2.5-2.1-4.8-2.6-8.2-2.9C8.7,3.8,5.4,4.9,3.2,7.4C0.8,10-0.3,14.3,0.1,19C0.9,27.9,5.2,32.2,13.3,32.2z M102,53.6
	c-1.2,0-2,0.2-2.6,0.4c-0.4,0.2-0.5,0.4-0.5,0.8v5.9c0,0.3,0.1,0.3,0.3,0.3h0.6c0.3,0,0.3-0.1,0.3-0.3v-5.4c0-0.1,0-0.2,0.2-0.3
	c0.4-0.1,0.9-0.2,1.6-0.2h0.5c0.3,0,0.3-0.1,0.3-0.3v-0.5c0-0.3-0.1-0.3-0.3-0.3H102z M188.1,61.2c1.6,0,2.5-0.6,3-1.4
	c0.2-0.2,0.1-0.4-0.1-0.5l-0.4-0.2c-0.3-0.1-0.4-0.1-0.5,0.1c-0.3,0.6-1,1-1.9,1c-1.2,0-1.9-0.6-1.9-1.7v-0.7h4.6
	c0.4,0,0.5-0.2,0.5-0.5v-0.8c0-1.7-1-2.9-3.2-2.9c-2.1,0-3.2,1.1-3.2,3l0,1.7C185,60,185.9,61.2,188.1,61.2z M186.2,56.4
	c0-1.1,0.7-1.8,1.9-1.8c1.3,0,1.9,0.7,1.9,1.8v0.4h-3.8V56.4z M178.3,35.2c0.3,0,0.6-0.3,0.6-0.6v-34c0-0.3-0.3-0.6-0.6-0.6
	s-0.6,0.3-0.6,0.6v34C177.7,34.9,177.9,35.2,178.3,35.2z M163.1,52.6L163.1,52.6c0.6,0,0.8-0.2,0.8-0.7v-0.1c0-0.5-0.2-0.7-0.7-0.7
	h-0.1c-0.5,0-0.7,0.2-0.7,0.7v0.1C162.4,52.4,162.6,52.6,163.1,52.6z M163.5,53.8h-0.6c-0.3,0-0.3,0.1-0.3,0.3v6.6
	c0,0.3,0.1,0.3,0.3,0.3h0.6c0.3,0,0.3-0.1,0.3-0.3v-6.6C163.8,53.9,163.7,53.8,163.5,53.8z M165.1,54.9h1.2v3.3c0,2.3,0.8,3,3.1,3
	c0.3,0,0.3-0.1,0.3-0.3v-0.5c0-0.3-0.1-0.3-0.3-0.3c-1.4,0-1.8-0.3-1.8-1.8v-3.3h1.8c0.2,0,0.3-0.1,0.3-0.3v-0.5
	c0-0.3-0.1-0.3-0.3-0.3h-1.8v-1.3c0-0.3-0.1-0.3-0.3-0.3h-0.6c-0.3,0-0.3,0.1-0.3,0.3v1.3h-1.2c-0.3,0-0.3,0.1-0.3,0.3v0.5
	C164.8,54.9,164.8,54.9,165.1,54.9z M62.9,53.8h-0.6c-0.3,0-0.3,0.1-0.3,0.3v6.6c0,0.3,0.1,0.3,0.3,0.3h0.6c0.3,0,0.3-0.1,0.3-0.3
	v-6.6C63.3,53.9,63.2,53.8,62.9,53.8z M62.7,51.1L62.7,51.1c-0.6,0-0.8,0.2-0.8,0.7v0.1c0,0.5,0.2,0.7,0.7,0.7h0.1
	c0.5,0,0.7-0.2,0.7-0.7v-0.1C63.4,51.3,63.2,51.1,62.7,51.1z M55.2,58.8l-0.5-0.1c-0.3-0.1-0.4,0-0.5,0.2c-0.3,0.8-0.8,1.2-1.8,1.2
	c-1.2,0-1.8-0.6-1.8-1.7v-2.1c0-1,0.6-1.7,1.8-1.7c1,0,1.6,0.4,1.8,1.2c0.1,0.3,0.2,0.3,0.5,0.2l0.5-0.2c0.2-0.1,0.3-0.2,0.2-0.5
	c-0.3-1.1-1.3-1.9-3-1.9c-2.1,0-3.1,1.1-3.1,2.8v2c0,1.8,1,2.8,3.1,2.8c1.7,0,2.6-0.7,3.1-1.9C55.6,59,55.5,58.9,55.2,58.8z
	 M60.6,53.8h-1.8v-1.3c0-0.3-0.1-0.3-0.3-0.3h-0.6c-0.3,0-0.3,0.1-0.3,0.3v1.3h-1.2c-0.3,0-0.3,0.1-0.3,0.3v0.5
	c0,0.3,0.1,0.3,0.3,0.3h1.2v3.3c0,2.3,0.8,3,3.1,3c0.3,0,0.3-0.1,0.3-0.3v-0.5c0-0.3-0.1-0.3-0.3-0.3c-1.4,0-1.8-0.3-1.8-1.8v-3.3
	h1.8c0.2,0,0.3-0.1,0.3-0.3v-0.5C60.9,53.9,60.8,53.8,60.6,53.8z M94,25l-2.3,0l-0.1-13.1l2.5-0.2L94,8.1L80.1,8.5l-4.6,13.7
	L70.8,8.5L56.7,8.1l0.2,3.4l2.2,0.2v13.3l-2.4,0.2l0.1,3.5l11-0.2v-3.6l-2.6,0l0.1-12.2l6,15.6l7.2,0L84.2,13l0.2,11.9l-2.5,0
	l0.1,3.6l12.1,0.3L94,25z M75.8,53.6c-1.3,0-2.1,0.3-2.7,0.5c-0.4,0.2-0.5,0.4-0.5,0.8v5.8c0,0.3,0.1,0.3,0.3,0.3h0.6
	c0.3,0,0.3-0.1,0.3-0.3v-5.4c0-0.1,0-0.2,0.2-0.3c0.4-0.1,0.9-0.3,1.6-0.3c1.2,0,1.8,0.6,1.8,1.7v4.3c0,0.3,0.1,0.3,0.3,0.3h0.6
	c0.3,0,0.3-0.1,0.3-0.3v-4.3C78.6,54.6,77.7,53.6,75.8,53.6z M67.9,53.6c-2,0-3.1,1-3.1,2.7v2.3c0,1.7,1.2,2.7,3.1,2.7
	c2,0,3.1-1,3.1-2.7v-2.3C71.1,54.6,69.9,53.6,67.9,53.6z M69.8,58.5c0,1-0.7,1.5-1.9,1.5c-1.2,0-1.9-0.6-1.9-1.5v-2.3
	c0-1,0.7-1.5,1.9-1.5c1.2,0,1.9,0.6,1.9,1.5V58.5z M27.7,56.8c-1.2-0.1-1.9-0.2-1.9-1.1c0-0.7,0.5-1,1.6-1s1.5,0.4,1.8,0.9
	c0.1,0.2,0.2,0.3,0.5,0.2l0.5-0.2c0.2-0.1,0.3-0.2,0.2-0.5c-0.4-0.9-1.3-1.5-2.9-1.5c-1.9,0-2.8,0.9-2.8,2.2c0,1.8,1.4,2,2.8,2.2
	c1.2,0.1,1.9,0.3,1.9,1.1c0,0.7-0.6,1.1-1.8,1.1c-1,0-1.6-0.3-1.9-1c-0.1-0.3-0.2-0.3-0.4-0.2L24.7,59c-0.3,0.1-0.3,0.2-0.2,0.4
	c0.4,1.1,1.5,1.7,3.1,1.7c2,0,2.9-0.9,2.9-2.2C30.5,57.3,29.3,57,27.7,56.8z M20.3,53.6c-1.3,0-2.1,0.3-2.7,0.5
	c-0.4,0.2-0.5,0.4-0.5,0.8v5.8c0,0.3,0.1,0.3,0.3,0.3H18c0.3,0,0.3-0.1,0.3-0.3v-5.4c0-0.1,0-0.2,0.2-0.3c0.4-0.1,0.9-0.3,1.6-0.3
	c1.2,0,1.8,0.6,1.8,1.7v4.3c0,0.3,0.1,0.3,0.3,0.3h0.6c0.3,0,0.3-0.1,0.3-0.3v-4.3C23.1,54.6,22.2,53.6,20.3,53.6z M35.6,53.8h-1.8
	v-1.3c0-0.3-0.1-0.3-0.3-0.3h-0.6c-0.3,0-0.3,0.1-0.3,0.3v1.3h-1.2c-0.3,0-0.3,0.1-0.3,0.3v0.5c0,0.3,0.1,0.3,0.3,0.3h1.2v3.3
	c0,2.3,0.8,3,3.1,3c0.3,0,0.3-0.1,0.3-0.3v-0.5c0-0.3-0.1-0.3-0.3-0.3c-1.4,0-1.8-0.3-1.8-1.8v-3.3h1.8c0.2,0,0.3-0.1,0.3-0.3v-0.5
	C35.9,53.9,35.9,53.8,35.6,53.8z M47.5,53.8h-0.6c-0.3,0-0.3,0.1-0.3,0.3v5.4c0,0.1,0,0.2-0.2,0.3c-0.4,0.1-0.9,0.2-1.6,0.2
	c-1.2,0-1.8-0.6-1.8-1.7v-4.3c0-0.3-0.1-0.3-0.3-0.3h-0.6c-0.3,0-0.3,0.1-0.3,0.3v4.3c0,1.7,0.9,2.8,2.8,2.8c1.3,0,2.1-0.3,2.7-0.5
	c0.4-0.2,0.5-0.3,0.5-0.8v-5.8C47.9,53.9,47.8,53.8,47.5,53.8z M54.9,8L30,6.4v4l2.4,0.2v15.2l-2.6,0.4l0,4l13.9-0.9l-0.1-3.8
	l-3.4-0.2l0.1-4.9l2.1-0.1l0.3,2.7l4.8-0.2l-0.1-8.6l-4.8-0.1l-0.1,2.1l-2.2,0l0.1-5.4l8.6,0.3l0.1,3.3l6,0.3L54.9,8z M40.5,53.6
	h-0.4c-1.2,0-2,0.2-2.6,0.4c-0.4,0.2-0.5,0.4-0.5,0.8v5.9c0,0.3,0.1,0.3,0.3,0.3h0.6c0.3,0,0.3-0.1,0.3-0.3v-5.4
	c0-0.1,0-0.2,0.2-0.3c0.4-0.1,0.9-0.2,1.6-0.2h0.5c0.3,0,0.3-0.1,0.3-0.3v-0.5C40.9,53.7,40.8,53.6,40.5,53.6z M164.5,70.6
	c-0.9,0-1.7,0.2-2,0.3V68c0-0.3-0.1-0.3-0.3-0.3h-0.6c-0.3,0-0.3,0.1-0.3,0.3v9.7c0,0.3,0.1,0.3,0.3,0.3h0.6c0.2,0,0.3-0.1,0.3-0.3
	V72c0.3-0.2,1-0.3,1.8-0.3c1.2,0,1.8,0.6,1.8,1.7v4.3c0,0.3,0.1,0.3,0.3,0.3h0.6c0.3,0,0.3-0.1,0.3-0.3v-4.3
	C167.4,71.6,166.5,70.6,164.5,70.6z M295.2,15.1c0-7.5-6-13.5-13.4-13.5s-13.4,6-13.4,13.5c0,7.5,5.9,13.4,13.4,13.4
	C289.2,28.5,295.2,22.6,295.2,15.1z M273.2,15.1c0-4.7,3.8-8.6,8.5-8.6c4.7,0,8.6,3.9,8.6,8.6c0,4.7-3.9,8.5-8.6,8.5
	C277,23.7,273.2,19.8,273.2,15.1z M298.4,54c-0.5-0.2-1.4-0.4-2.4-0.4c-2.1,0-3.1,1-3.1,2.9v1.7c0,1.7,0.9,2.8,2.8,2.8
	c0.9,0,1.6-0.2,2-0.3v0.8c0,1.2-0.6,1.8-1.8,1.8c-0.9,0-1.4-0.4-1.7-0.9c-0.2-0.2-0.3-0.3-0.5-0.1l-0.4,0.2
	c-0.3,0.1-0.3,0.3-0.1,0.5c0.5,0.9,1.3,1.4,2.8,1.4c2.2,0,3-1.2,3-3v-6.6C298.9,54.3,298.8,54.2,298.4,54z M297.7,59.5
	c-0.3,0.1-1,0.3-1.8,0.3c-1.2,0-1.8-0.6-1.8-1.7v-1.7c0-1.2,0.6-1.8,1.9-1.8c0.6,0,1.1,0.1,1.4,0.2c0.2,0.1,0.2,0.1,0.2,0.3V59.5z
	 M276.2,53.6c-1.3,0-2.1,0.3-2.7,0.5h0c-0.4,0.2-0.5,0.4-0.5,0.8v5.8c0,0.3,0.1,0.3,0.3,0.3h0.6c0.3,0,0.3-0.1,0.3-0.3v-5.4
	c0-0.1,0-0.2,0.2-0.3c0.4-0.1,0.9-0.3,1.6-0.3c1.2,0,1.8,0.6,1.8,1.7v4.3c0,0.3,0.1,0.3,0.3,0.3h0.6c0.3,0,0.3-0.1,0.3-0.3v-4.3
	C279.1,54.6,278.2,53.6,276.2,53.6z M271.3,59.7h-4.8v-3.1h4c0.3,0,0.4-0.1,0.4-0.4v-0.5c0-0.3-0.1-0.4-0.4-0.4h-4v-3h4.6
	c0.3,0,0.4-0.1,0.4-0.4v-0.5c0-0.3-0.1-0.4-0.4-0.4h-5.6c-0.3,0-0.4,0.1-0.4,0.4v9.2c0,0.3,0.1,0.4,0.4,0.4h5.8
	c0.3,0,0.4-0.1,0.4-0.4v-0.5C271.7,59.8,271.6,59.7,271.3,59.7z M283.7,53.6c-2.1,0-3.2,1.1-3.2,3v1.7c0,1.7,0.9,2.9,3.1,2.9
	c1.6,0,2.5-0.6,3-1.4c0.2-0.2,0.1-0.4-0.1-0.5l-0.4-0.2c-0.3-0.1-0.4-0.1-0.5,0.1c-0.3,0.6-1,1-1.9,1c-1.2,0-1.9-0.6-1.9-1.7v-0.7
	h4.6c0.4,0,0.5-0.2,0.5-0.5v-0.8C286.8,54.8,285.8,53.6,283.7,53.6z M285.6,56.8h-3.8v-0.4c0-1.1,0.7-1.8,1.9-1.8
	c1.3,0,1.9,0.7,1.9,1.8V56.8z M291.8,53.6h-0.4c-1.2,0-2,0.2-2.6,0.4c-0.4,0.2-0.5,0.3-0.5,0.8v5.9c0,0.3,0.1,0.3,0.3,0.3h0.6
	c0.3,0,0.3-0.1,0.3-0.3v-5.4c0-0.1,0-0.2,0.2-0.3c0.4-0.1,0.9-0.2,1.6-0.2h0.5c0.3,0,0.3-0.1,0.3-0.3v-0.5
	C292.1,53.7,292,53.6,291.8,53.6z M258.1,2h-8.8c-0.4,0-0.7,0.3-0.7,0.7v24.7c0,0.4,0.3,0.7,0.7,0.7h3.4c0.4,0,0.7-0.3,0.7-0.7v-8.8
	h4.7c4.6,0,8.3-3.8,8.3-8.4C266.5,5.8,262.7,2,258.1,2z M258,14.1h-4.5V6.6h4.5c2.1,0,3.7,1.6,3.7,3.6
	C261.7,12.4,260.1,14.1,258,14.1z M242.4,70.6c-1.3,0-2.1,0.3-2.7,0.5c-0.4,0.2-0.5,0.4-0.5,0.8v5.8c0,0.3,0.1,0.3,0.3,0.3h0.6
	c0.3,0,0.3-0.1,0.3-0.3v-5.4c0-0.1,0-0.2,0.2-0.3c0.4-0.1,0.9-0.3,1.6-0.3c1.2,0,1.8,0.6,1.8,1.7v4.3c0,0.3,0.1,0.3,0.3,0.3h0.6
	c0.3,0,0.3-0.1,0.3-0.3v-4.3C245.3,71.6,244.4,70.6,242.4,70.6z M259.8,50.6h-0.6c-0.3,0-0.3,0.1-0.3,0.3v2.9
	c-0.4-0.1-1.1-0.3-2-0.3c-1.9,0-2.8,1-2.8,2.9v2c0,1.8,0.9,2.8,3,2.8c1.2,0,2-0.2,2.5-0.4c0.4-0.2,0.5-0.3,0.5-0.8v-9
	C260.1,50.7,260,50.6,259.8,50.6z M258.8,59.6c0,0.2,0,0.2-0.2,0.3c-0.4,0.1-0.9,0.2-1.5,0.2c-1.2,0-1.8-0.6-1.8-1.7v-1.9
	c0-1.1,0.6-1.8,1.8-1.8c0.8,0,1.4,0.2,1.7,0.3V59.6z M242.1,56.8c-2.2,0-3.1,0.6-3.1,2.2c0,1.4,0.6,2.2,3.1,2.2
	c1.1,0,1.9-0.1,2.4-0.4c0.4-0.2,0.5-0.3,0.5-0.8v-3.7c0-1.6-0.6-2.8-2.9-2.8c-1.4,0-2.4,0.5-2.8,1.5c-0.1,0.3-0.1,0.4,0.2,0.5
	l0.4,0.2c0.3,0.1,0.3,0.1,0.5-0.2c0.3-0.6,0.9-0.9,1.7-0.9c1.3,0,1.7,0.7,1.7,1.7v0.5C243.4,56.9,242.7,56.8,242.1,56.8z
	 M243.7,57.9v1.8c0,0.2,0,0.2-0.2,0.3c-0.3,0.1-0.8,0.2-1.6,0.2c-1.4,0-1.7-0.4-1.7-1.2c0-0.8,0.4-1.2,1.7-1.2
	C242.6,57.8,243.4,57.9,243.7,57.9z M249.7,53.6c-1.3,0-2.1,0.3-2.7,0.5c-0.4,0.2-0.5,0.4-0.5,0.8v5.8c0,0.3,0.1,0.3,0.3,0.3h0.6
	c0.3,0,0.3-0.1,0.3-0.3v-5.4c0-0.1,0-0.2,0.2-0.3c0.4-0.1,0.9-0.3,1.6-0.3c1.2,0,1.8,0.6,1.8,1.7v4.3c0,0.3,0.1,0.3,0.3,0.3h0.6
	c0.3,0,0.3-0.1,0.3-0.3v-4.3C252.6,54.6,251.7,53.6,249.7,53.6z M220.5,18.4c0,1.2,0.9,2.1,2,2.1c1.1,0,2-0.9,2-2.1V5.6h10.3l0,13.2
	c0,6.9-5.6,12.5-12.5,12.5c-6.9,0-12.5-5.6-12.5-12.5V5.6h3.4v13.2c0,5,4.1,9.1,9.1,9.1c5,0,9.1-4.1,9.1-9.1V8.7h-3.9v10.2
	c0,2.8-2.3,5.2-5.2,5.2c-2.8,0-5.2-2.3-5.2-5.2V1.7h-11.2v17.1c0,9,7.3,16.4,16.4,16.4s16.4-7.3,16.4-16.4l0-17.1h-18.2V18.4z
	 M250.8,70.8h-1.8v-1.3c0-0.3-0.1-0.3-0.3-0.3H248c-0.3,0-0.3,0.1-0.3,0.3v1.3h-1.2c-0.3,0-0.3,0.1-0.3,0.3v0.5
	c0,0.3,0.1,0.3,0.3,0.3h1.2v3.3c0,2.3,0.8,3,3.1,3c0.3,0,0.3-0.1,0.3-0.3v-0.5c0-0.3-0.1-0.3-0.3-0.3c-1.4,0-1.8-0.3-1.8-1.8v-3.3
	h1.8c0.2,0,0.3-0.1,0.3-0.3v-0.5C251.1,70.9,251,70.8,250.8,70.8z M342.6,53.6c-1.3,0-2.1,0.3-2.7,0.5c-0.4,0.2-0.5,0.4-0.5,0.8v5.8
	c0,0.3,0.1,0.3,0.3,0.3h0.6c0.3,0,0.3-0.1,0.3-0.3v-5.4c0-0.1,0-0.2,0.2-0.3c0.4-0.1,0.9-0.3,1.6-0.3c1.2,0,1.8,0.6,1.8,1.7v4.3
	c0,0.3,0.1,0.3,0.3,0.3h0.6c0.3,0,0.3-0.1,0.3-0.3v-4.3C345.5,54.6,344.6,53.6,342.6,53.6z M330.6,2h-3.4c-0.4,0-0.7,0.3-0.7,0.7
	v15.4h-0.1L311.1,1.9c-0.2-0.2-0.4-0.3-0.6-0.3h-0.6c-0.4,0-0.7,0.3-0.7,0.7v25.1c0,0.4,0.3,0.7,0.7,0.7h3.4c0.4,0,0.7-0.3,0.7-0.7
	v-16h0.1l15.3,16.9c0.2,0.2,0.4,0.3,0.6,0.3h0.5c0.4,0,0.7-0.3,0.7-0.7V2.7C331.3,2.4,330.9,2,330.6,2z M351.2,2h-16.3
	c-0.4,0-0.7,0.3-0.7,0.7v3.1c0,0.4,0.3,0.7,0.7,0.7h5.7v20.9c0,0.4,0.3,0.7,0.7,0.7h3.5c0.4,0,0.7-0.3,0.7-0.7V6.5h5.7
	c0.4,0,0.7-0.3,0.7-0.7V2.7C351.9,2.4,351.6,2,351.2,2z M334.8,53.6c-2,0-3.1,1-3.1,2.7v2.3c0,1.7,1.2,2.7,3.1,2.7
	c2,0,3.2-1,3.2-2.7v-2.3C337.9,54.6,336.8,53.6,334.8,53.6z M336.7,58.5c0,1-0.7,1.5-1.9,1.5c-1.2,0-1.9-0.6-1.9-1.5v-2.3
	c0-1,0.7-1.5,1.9-1.5c1.2,0,1.9,0.6,1.9,1.5V58.5z M356.8,2.3h-2.6c-0.2,0-0.2,0-0.2,0.2v0.2c0,0.2,0,0.2,0.2,0.2h1v2.5
	c0,0.1,0.1,0.2,0.2,0.2h0.1c0.2,0,0.2,0,0.2-0.2V2.8h1c0.1,0,0.2,0,0.2-0.2V2.5C357,2.3,357,2.3,356.8,2.3z M303.9,27.4V2.7
	c0-0.4-0.3-0.7-0.7-0.7h-3.5c-0.4,0-0.7,0.3-0.7,0.7v24.7c0,0.4,0.3,0.7,0.7,0.7h3.5C303.5,28.1,303.9,27.8,303.9,27.4z M360.4,2.3
	h-0.1c-0.1,0-0.1,0-0.2,0.1l-1.1,1.7l-1.1-1.7c-0.1-0.1-0.1-0.1-0.2-0.1h-0.1c-0.2,0-0.2,0-0.2,0.2v2.8c0,0.1,0,0.2,0.2,0.2h0.2
	c0.2,0,0.2,0,0.2-0.2V3.9c0-0.1,0-0.3,0-0.6c0.1,0.1,0.2,0.2,0.3,0.4l0.7,1c0.1,0.1,0.1,0.1,0.2,0.1h0.1c0.1,0,0.2,0,0.2-0.1l0.7-1
	c0.1-0.1,0.2-0.4,0.3-0.4c0,0.3,0,0.5,0,0.7v1.4c0,0.1,0,0.2,0.2,0.2h0.2c0.1,0,0.2,0,0.2-0.2V2.4C360.6,2.3,360.5,2.3,360.4,2.3z
	 M306.3,53.8h-0.6c-0.3,0-0.3,0.1-0.3,0.3v5.4c-0.4,0.1-1,0.3-1.8,0.3c-1.2,0-1.8-0.6-1.8-1.7v-4c0-0.3-0.1-0.3-0.3-0.3h-0.6
	c-0.3,0-0.3,0.1-0.3,0.3v4.1c0,1.8,0.9,2.8,2.8,2.8c0.9,0,1.5-0.2,2-0.3v0.8c0,1.2-0.6,1.8-1.8,1.8c-0.9,0-1.4-0.4-1.7-0.9
	c-0.2-0.2-0.3-0.3-0.5-0.1l-0.4,0.2c-0.3,0.1-0.3,0.3-0.1,0.5c0.5,0.9,1.3,1.4,2.8,1.4c2.2,0,3-1.2,3-3v-7.2
	C306.6,53.9,306.5,53.8,306.3,53.8z M329.5,51.1L329.5,51.1c-0.6,0-0.8,0.2-0.8,0.7v0.1c0,0.5,0.2,0.7,0.7,0.7h0.1
	c0.5,0,0.7-0.2,0.7-0.7v-0.1C330.2,51.3,330.1,51.1,329.5,51.1z M319,51.1h-0.6c-0.3,0-0.4,0.1-0.4,0.4v6.2c0,1.4-0.8,2.3-2.5,2.3
	c-1.7,0-2.5-0.9-2.5-2.3v-6.2c0-0.3-0.1-0.4-0.4-0.4H312c-0.3,0-0.4,0.1-0.4,0.4v6.2c0,2.2,1.3,3.6,3.8,3.6c2.5,0,3.8-1.4,3.8-3.6
	v-6.2C319.3,51.2,319.2,51.1,319,51.1z M324.3,53.6c-1.3,0-2.1,0.3-2.7,0.5h0c-0.4,0.2-0.5,0.4-0.5,0.8v5.8c0,0.3,0.1,0.3,0.3,0.3
	h0.6c0.3,0,0.3-0.1,0.3-0.3v-5.4c0-0.1,0-0.2,0.2-0.3c0.4-0.1,0.9-0.3,1.6-0.3c1.2,0,1.8,0.6,1.8,1.7v4.3c0,0.3,0.1,0.3,0.3,0.3h0.6
	c0.3,0,0.3-0.1,0.3-0.3v-4.3C327.2,54.6,326.3,53.6,324.3,53.6z M329.8,53.8h-0.6c-0.3,0-0.3,0.1-0.3,0.3v6.6c0,0.3,0.1,0.3,0.3,0.3
	h0.6c0.3,0,0.3-0.1,0.3-0.3v-6.6C330.1,53.9,330,53.8,329.8,53.8z M171.3,52.6L171.3,52.6c0.6,0,0.8-0.2,0.8-0.7v-0.1
	c0-0.5-0.2-0.7-0.7-0.7h-0.1c-0.5,0-0.7,0.2-0.7,0.7v0.1C170.6,52.4,170.8,52.6,171.3,52.6z M194,70.8h-0.6c-0.3,0-0.3,0.1-0.3,0.3
	v6.6c0,0.3,0.1,0.3,0.3,0.3h0.6c0.3,0,0.3-0.1,0.3-0.3v-6.6C194.3,70.9,194.2,70.8,194,70.8z M236.9,68.1L236.9,68.1
	c-0.6,0-0.8,0.2-0.8,0.7v0.1c0,0.5,0.2,0.7,0.7,0.7h0.1c0.5,0,0.7-0.2,0.7-0.7v-0.1C237.6,68.3,237.4,68.1,236.9,68.1z M182.3,60.7
	c0,0.3,0.1,0.3,0.3,0.3h0.6c0.2,0,0.3-0.1,0.3-0.3v-4.4c0-1.7-0.8-2.7-2.6-2.7c-1.3,0-2.1,0.4-2.5,0.5c-0.4-0.4-1-0.5-1.8-0.5
	c-1.1,0-1.8,0.2-2.4,0.5c-0.4,0.2-0.5,0.4-0.5,0.8v5.8c0,0.3,0.1,0.3,0.3,0.3h0.6c0.3,0,0.3-0.1,0.3-0.3v-5.4c0-0.1,0-0.2,0.2-0.3
	c0.4-0.1,0.8-0.2,1.3-0.2c1.1,0,1.6,0.5,1.6,1.6v4.3c0,0.3,0.1,0.3,0.3,0.3h0.6c0.2,0,0.3-0.1,0.3-0.3v-4.4c0-0.5-0.1-0.9-0.2-1.2
	c0.3-0.1,0.9-0.4,1.7-0.4c1.1,0,1.6,0.5,1.6,1.6V60.7z M175.2,70.6c-1.2,0-2,0.2-2.6,0.4c-0.4,0.2-0.5,0.3-0.5,0.8v9
	c0,0.3,0.1,0.3,0.3,0.3h0.6c0.3,0,0.3-0.1,0.3-0.3v-2.9c0.4,0.1,1,0.4,1.8,0.4c2,0,3-1,3-2.9v-2C178.1,71.6,177.2,70.6,175.2,70.6z
	 M176.8,75.3c0,1.2-0.6,1.8-1.8,1.8c-0.7,0-1.4-0.3-1.7-0.4v-4.5c0-0.2,0-0.2,0.2-0.3c0.4-0.1,0.9-0.2,1.5-0.2
	c1.2,0,1.8,0.6,1.8,1.7V75.3z M193.7,68.1L193.7,68.1c-0.6,0-0.8,0.2-0.8,0.7v0.1c0,0.5,0.2,0.7,0.7,0.7h0.1c0.5,0,0.7-0.2,0.7-0.7
	v-0.1C194.4,68.3,194.2,68.1,193.7,68.1z M199.9,70.8H198v-1.3c0-0.3-0.1-0.3-0.3-0.3h-0.6c-0.3,0-0.3,0.1-0.3,0.3v1.3h-1.2
	c-0.3,0-0.3,0.1-0.3,0.3v0.5c0,0.3,0.1,0.3,0.3,0.3h1.2v3.3c0,2.3,0.8,3,3.1,3c0.3,0,0.3-0.1,0.3-0.3v-0.5c0-0.3-0.1-0.3-0.3-0.3
	c-1.4,0-1.8-0.3-1.8-1.8v-3.3h1.8c0.2,0,0.3-0.1,0.3-0.3v-0.5C200.2,70.9,200.1,70.8,199.9,70.8z M171.7,53.8h-0.6
	c-0.3,0-0.3,0.1-0.3,0.3v6.6c0,0.3,0.1,0.3,0.3,0.3h0.6c0.3,0,0.3-0.1,0.3-0.3v-6.6C172,53.9,171.9,53.8,171.7,53.8z M170,70.8h-0.6
	c-0.3,0-0.3,0.1-0.3,0.3v6.6c0,0.3,0.1,0.3,0.3,0.3h0.6c0.3,0,0.3-0.1,0.3-0.3v-6.6C170.3,70.9,170.2,70.8,170,70.8z M161.5,54.4
	v-0.5c0-0.3-0.1-0.3-0.3-0.3h-0.4v0c-1.2,0-2,0.2-2.6,0.4c-0.4,0.2-0.5,0.4-0.5,0.8v5.9c0,0.3,0.1,0.3,0.3,0.3h0.6
	c0.3,0,0.3-0.1,0.3-0.3v-5.4c0-0.1,0-0.2,0.2-0.3c0.4-0.1,0.9-0.2,1.6-0.2h0.5C161.5,54.7,161.5,54.6,161.5,54.4z M169.7,68.1
	L169.7,68.1c-0.6,0-0.8,0.2-0.8,0.7v0.1c0,0.5,0.2,0.7,0.7,0.7h0.1c0.5,0,0.7-0.2,0.7-0.7v-0.1C170.4,68.3,170.2,68.1,169.7,68.1z
	 M204.2,53L204.2,53c-0.1,1-0.2,1.8-0.2,2.6v5.1c0,0.3,0.1,0.4,0.4,0.4h0.6c0.3,0,0.4-0.1,0.4-0.4v-9.2c0-0.3-0.1-0.4-0.4-0.4h-0.5
	c-0.3,0-0.4,0.1-0.5,0.3l-3.2,5.7l-3.2-5.7c-0.1-0.2-0.2-0.3-0.5-0.3h-0.5c-0.3,0-0.4,0.1-0.4,0.4v9.2c0,0.3,0.1,0.4,0.4,0.4h0.5
	c0.3,0,0.4-0.1,0.4-0.4v-5.1c0-0.8-0.1-1.6-0.2-2.6h0.1c0.3,1,0.6,1.6,1,2.3l1.8,3.2c0.1,0.2,0.2,0.3,0.4,0.3h0.4
	c0.2,0,0.3-0.1,0.4-0.3l1.8-3.2C203.5,54.6,203.8,53.9,204.2,53z M157.2,73.8c-1.2-0.1-1.9-0.2-1.9-1.1c0-0.7,0.5-1,1.6-1
	s1.5,0.4,1.8,0.9c0.1,0.2,0.2,0.3,0.5,0.2l0.5-0.2c0.2-0.1,0.3-0.2,0.2-0.5c-0.4-0.9-1.3-1.5-2.9-1.5c-1.9,0-2.8,0.9-2.8,2.2
	c0,1.8,1.4,2,2.8,2.2c1.2,0.1,1.9,0.3,1.9,1.1c0,0.7-0.6,1.1-1.8,1.1c-1,0-1.6-0.3-1.9-1c-0.1-0.3-0.2-0.3-0.4-0.2l-0.5,0.2
	c-0.3,0.1-0.3,0.2-0.2,0.4c0.4,1.1,1.5,1.7,3.1,1.7c2,0,2.9-0.9,2.9-2.2C160,74.3,158.8,74,157.2,73.8z M191.6,70.8h-0.4
	c-0.4,0-0.5,0.1-0.6,0.3l-1,3.8c-0.2,0.7-0.2,1.4-0.3,1.6h-0.1c0-0.2-0.1-1-0.3-1.6l-1.2-3.7c-0.1-0.3-0.2-0.3-0.5-0.3H187
	c-0.4,0-0.5,0.1-0.6,0.3l-1.1,3.7c-0.2,0.6-0.3,1.4-0.3,1.6h-0.1c0-0.2-0.1-1-0.3-1.6l-1-3.8c-0.1-0.3-0.2-0.3-0.6-0.3h-0.4
	c-0.3,0-0.4,0.1-0.3,0.4l2,6.6c0.1,0.2,0.2,0.3,0.5,0.3h0.4c0.3,0,0.4-0.1,0.5-0.3l1.2-4.1c0.2-0.6,0.2-1.2,0.3-1.3h0.1
	c0,0.1,0.1,0.7,0.3,1.3l1.2,4.1c0.1,0.2,0.2,0.3,0.5,0.3h0.4c0.3,0,0.4-0.1,0.4-0.3l2-6.6C191.9,70.9,191.9,70.8,191.6,70.8z
	 M226,61h0.6c0.3,0,0.3-0.1,0.3-0.3v-4.3c0-1.7-0.9-2.8-2.8-2.8c-1.3,0-2.1,0.3-2.7,0.5c-0.4,0.2-0.5,0.4-0.5,0.8v5.8
	c0,0.3,0.1,0.3,0.3,0.3h0.6c0.3,0,0.3-0.1,0.3-0.3v-5.4c0-0.1,0-0.2,0.2-0.3c0.4-0.1,0.9-0.3,1.6-0.3c1.2,0,1.8,0.6,1.8,1.7v4.3
	C225.7,60.9,225.7,61,226,61z M231.4,63.3c-0.9,0-1.4-0.4-1.7-0.9c-0.2-0.2-0.3-0.3-0.5-0.1l-0.4,0.2c-0.3,0.1-0.3,0.3-0.1,0.5
	c0.5,0.9,1.3,1.4,2.8,1.4c2.2,0,3-1.2,3-3v-6.6c0-0.5-0.1-0.6-0.5-0.8c-0.5-0.2-1.4-0.4-2.4-0.4c-2.1,0-3.1,1-3.1,2.9v1.7
	c0,1.7,0.9,2.8,2.8,2.8c0.9,0,1.6-0.2,2-0.3v0.8C233.2,62.6,232.6,63.3,231.4,63.3z M231.4,59.8c-1.2,0-1.8-0.6-1.8-1.7v-1.7
	c0-1.2,0.6-1.8,1.9-1.8c0.6,0,1.1,0.1,1.4,0.2h0c0.2,0.1,0.2,0.1,0.2,0.3v4.3C232.8,59.6,232.2,59.8,231.4,59.8z M224.2,68.1h-3.7
	c-0.3,0-0.4,0.1-0.4,0.4v9.2c0,0.3,0.1,0.4,0.4,0.4h0.6c0.3,0,0.4-0.1,0.4-0.4v-3.2h2.7c2,0,3.2-1.2,3.2-3.2
	C227.4,69.2,226.2,68.1,224.2,68.1z M224.1,73.1h-2.6v-3.8h2.6c1.2,0,1.9,0.7,1.9,1.9C226,72.4,225.3,73.1,224.1,73.1z M237.2,70.8
	h-0.6c-0.3,0-0.3,0.1-0.3,0.3v6.6c0,0.3,0.1,0.3,0.3,0.3h0.6c0.3,0,0.3-0.1,0.3-0.3v-6.6C237.5,70.9,237.4,70.8,237.2,70.8z
	 M231.6,70.6c-2,0-3.1,1-3.1,2.7v2.3c0,1.7,1.2,2.7,3.1,2.7c2,0,3.1-1,3.1-2.7v-2.3C234.7,71.6,233.6,70.6,231.6,70.6z M233.5,75.5
	c0,1-0.7,1.5-1.9,1.5c-1.2,0-1.9-0.6-1.9-1.5v-2.3c0-1,0.7-1.5,1.9-1.5c1.2,0,1.9,0.6,1.9,1.5V75.5z M218.6,51.1L218.6,51.1
	c-0.6,0-0.8,0.2-0.8,0.7v0.1c0,0.5,0.2,0.7,0.7,0.7h0.1c0.5,0,0.7-0.2,0.7-0.7v-0.1C219.2,51.3,219.1,51.1,218.6,51.1z M217.8,70.8
	h-0.6c-0.3,0-0.3,0.1-0.3,0.3v5.4c0,0.1,0,0.2-0.2,0.3c-0.4,0.1-0.9,0.2-1.6,0.2c-1.2,0-1.8-0.6-1.8-1.7v-4.3c0-0.3-0.1-0.3-0.3-0.3
	h-0.6c-0.3,0-0.3,0.1-0.3,0.3v4.3c0,1.7,0.9,2.8,2.8,2.8c1.3,0,2.1-0.3,2.7-0.5c0.4-0.2,0.5-0.4,0.5-0.8v-5.8
	C218.2,70.9,218.1,70.8,217.8,70.8z M208.1,53.8h-0.6c-0.3,0-0.3,0.1-0.3,0.3v6.6c0,0.3,0.1,0.3,0.3,0.3h0.6c0.3,0,0.3-0.1,0.3-0.3
	v-6.6C208.4,53.9,208.4,53.8,208.1,53.8z M218.8,53.8h-0.6c-0.3,0-0.3,0.1-0.3,0.3v6.6c0,0.3,0.1,0.3,0.3,0.3h0.6
	c0.3,0,0.3-0.1,0.3-0.3v-6.6C219.1,53.9,219.1,53.8,218.8,53.8z M207.8,51.1L207.8,51.1c-0.6,0-0.8,0.2-0.8,0.7v0.1
	c0,0.5,0.2,0.7,0.7,0.7h0.1c0.5,0,0.7-0.2,0.7-0.7v-0.1C208.5,51.3,208.4,51.1,207.8,51.1z M214.9,56.4v4.3c0,0.3,0.1,0.3,0.3,0.3
	h0.6c0.3,0,0.3-0.1,0.3-0.3v-4.3c0-1.7-0.9-2.8-2.8-2.8c-1.3,0-2.1,0.3-2.7,0.5c-0.4,0.2-0.5,0.4-0.5,0.8v5.8c0,0.3,0.1,0.3,0.3,0.3
	h0.6c0.3,0,0.3-0.1,0.3-0.3v-5.4c0-0.1,0-0.2,0.2-0.3c0.4-0.1,0.9-0.3,1.6-0.3C214.4,54.7,214.9,55.3,214.9,56.4z M204.5,70.6
	c-0.9,0-1.7,0.2-2,0.3V68c0-0.3-0.1-0.3-0.3-0.3h-0.6c-0.3,0-0.3,0.1-0.3,0.3v9.7c0,0.3,0.1,0.3,0.3,0.3h0.6c0.2,0,0.3-0.1,0.3-0.3
	V72c0.3-0.2,1-0.3,1.8-0.3c1.2,0,1.8,0.6,1.8,1.7v4.3c0,0.3,0.1,0.3,0.3,0.3h0.6c0.3,0,0.3-0.1,0.3-0.3v-4.3
	C207.3,71.6,206.4,70.6,204.5,70.6z"/>
</svg>
