<?xml version="1.0" encoding="UTF-8"?>
<svg viewBox="0 0 50 80" width="50px" height="80px" version="1.1" xmlns="http://www.w3.org/2000/svg" xmlns:xlink="http://www.w3.org/1999/xlink" xml:space="preserve">
    <defs>
        <polygon id="path-1" points="0 0 48.7404785 0 48.7404785 78.7339943 0 78.7339943"></polygon>
    </defs>
    <g id="Main-Pages" stroke="none" stroke-width="1" fill="none" fill-rule="evenodd">
        <g id="Plans" transform="translate(-919.000000, -1643.000000)">
            <g id="Page-1" transform="translate(944.000000, 1683.683594) rotate(-360.000000) translate(-944.000000, -1683.683594) translate(919.500000, 1643.683594)">
                <g id="Group-3" transform="translate(0.000000, 0.000625)">
                    <mask id="mask-2" fill="white">
                        <use xlink:href="#path-1"></use>
                    </mask>
                    <g id="Clip-2"></g>
                    <path d="M3.74926758,9.997422 L44.9912109,9.997422 L44.9912109,5.62327649 C44.9912109,4.58972839 44.1501252,3.7486427 43.1165771,3.7486427 L5.62390137,3.7486427 C4.59035327,3.7486427 3.74926758,4.58972839 3.74926758,5.62327649 L3.74926758,9.997422 Z M3.74926758,59.9876564 L44.9912109,59.9876564 L44.9912109,13.7466896 L3.74926758,13.7466896 L3.74926758,59.9876564 Z M3.74926758,63.736924 L3.74926758,73.1100929 C3.74926758,74.1448907 4.59035327,74.9847267 5.62390137,74.9847267 L43.1165771,74.9847267 C44.1501252,74.9847267 44.9912109,74.1448907 44.9912109,73.1100929 L44.9912109,63.736924 L3.74926758,63.736924 Z M43.1165771,78.7339943 L5.62390137,78.7339943 C2.52325708,78.7339943 0,76.2119869 0,73.1100929 L0,5.62327649 C0,2.5226322 2.52325708,-0.00062487793 5.62390137,-0.00062487793 L43.1165771,-0.00062487793 C46.2172214,-0.00062487793 48.7404785,2.5226322 48.7404785,5.62327649 L48.7404785,73.1100929 C48.7404785,76.2119869 46.2172214,78.7339943 43.1165771,78.7339943 Z" id="Fill-1" fill="#318BF4" mask="url(#mask-2)"></path>
                </g>
                <path d="M24.3702393,66.8625634 C22.9905088,66.8625634 21.8707275,67.9823446 21.8707275,69.3620751 C21.8707275,70.7418055 22.9905088,71.8615868 24.3702393,71.8615868 C25.7499697,71.8615868 26.869751,70.7418055 26.869751,69.3620751 C26.869751,67.9823446 25.7499697,66.8625634 24.3702393,66.8625634" id="Fill-4" fill="#318BF4"></path>
            </g>
        </g>
    </g>
</svg>