<?xml version="1.0" encoding="UTF-8"?>
<svg width="32px" height="53px" viewBox="0 0 32 53" version="1.1" xmlns="http://www.w3.org/2000/svg" xmlns:xlink="http://www.w3.org/1999/xlink">
    <!-- Generator: Sketch 50.2 (55047) - http://www.bohemiancoding.com/sketch -->
    <title>Page 1</title>
    <desc>Created with Sketch.</desc>
    <defs>
        <polygon id="path-1" points="0 0 31.8305166 0 31.8305166 52.1612712 0 52.1612712"></polygon>
    </defs>
    <g id="Elements" stroke="none" stroke-width="1" fill="none" fill-rule="evenodd">
        <g id="Account" transform="translate(-41.000000, -43.000000)">
            <g id="Group-Copy-2" transform="translate(0.000000, 0.837814)">
                <g id="Page-1" transform="translate(57.000000, 69.500000) rotate(-360.000000) translate(-57.000000, -69.500000) translate(41.000000, 43.000000)">
                    <g id="Group-3" transform="translate(0.000000, 0.000414)">
                        <mask id="mask-2" fill="white">
                            <use xlink:href="#path-1"></use>
                        </mask>
                        <g id="Clip-2"></g>
                        <path d="M2.44850128,6.62329207 L29.3820153,6.62329207 L29.3820153,3.72542067 C29.3820153,3.04069506 28.8327349,2.48347579 28.1577647,2.48347579 L3.67275191,2.48347579 C2.99778173,2.48347579 2.44850128,3.04069506 2.44850128,3.72542067 L2.44850128,6.62329207 Z M2.44850128,39.7418223 L29.3820153,39.7418223 L29.3820153,9.10718184 L2.44850128,9.10718184 L2.44850128,39.7418223 Z M2.44850128,42.2257121 L2.44850128,48.4354365 C2.44850128,49.1209901 2.99778173,49.6773814 3.67275191,49.6773814 L28.1577647,49.6773814 C28.8327349,49.6773814 29.3820153,49.1209901 29.3820153,48.4354365 L29.3820153,42.2257121 L2.44850128,42.2257121 Z M28.1577647,52.1612712 L3.67275191,52.1612712 C1.64784136,52.1612712 0,50.4904413 0,48.4354365 L0,3.72542067 C0,1.67124383 1.64784136,-0.000413981628 3.67275191,-0.000413981628 L28.1577647,-0.000413981628 C30.1826752,-0.000413981628 31.8305166,1.67124383 31.8305166,3.72542067 L31.8305166,48.4354365 C31.8305166,50.4904413 30.1826752,52.1612712 28.1577647,52.1612712 Z" id="Fill-1" fill="#318BF4" mask="url(#mask-2)"></path>
                    </g>
                    <path d="M25.9152583,44.2964482 C25.0142098,44.2964482 24.2829241,45.0383033 24.2829241,45.9523747 C24.2829241,46.8664462 25.0142098,47.6083012 25.9152583,47.6083012 C26.8163068,47.6083012 27.5475925,46.8664462 27.5475925,45.9523747 C27.5475925,45.0383033 26.8163068,44.2964482 25.9152583,44.2964482" id="Fill-4" fill="#318BF4"></path>
                </g>
            </g>
        </g>
    </g>
</svg>