<?xml version="1.0" encoding="UTF-8"?>
<svg width="134px" height="104px" viewBox="0 0 134 104" version="1.1" xmlns="http://www.w3.org/2000/svg" xmlns:xlink="http://www.w3.org/1999/xlink">
    <!-- Generator: Sketch 52.1 (67048) - http://www.bohemiancoding.com/sketch -->
    <title>Group 2</title>
    <desc>Created with Sketch.</desc>
    <defs>
        <polygon id="path-1" points="0 0.122466376 70.9996672 0.122466376 70.9996672 63.8601782 0 63.8601782"></polygon>
    </defs>
    <g id="Main-Pages" stroke="none" stroke-width="1" fill="none" fill-rule="evenodd">
        <g id="Success" transform="translate(-449.000000, -389.000000)">
            <g id="Group-4" transform="translate(236.000000, 333.000000)">
                <g id="Group-2" transform="translate(213.714844, 56.000000)">
                    <g id="Page-1" transform="translate(0.003361, 0.359375)">
                        <g id="Group-11" transform="translate(30.500000, 22.000000)">
                            <g id="Group-10" transform="translate(0.781795, 0.640625)">
                                <g id="Group-3" transform="translate(0.000000, 0.017328)">
                                    <mask id="mask-2" fill="white">
                                        <use xlink:href="#path-1"></use>
                                    </mask>
                                    <g id="Clip-2"></g>
                                    <path d="M67.7265949,35.9078288 L3.27343281,35.9078288 L3.27343281,4.44162795 C3.27343281,3.87876332 3.72772188,3.42098166 4.28643086,3.42098166 L66.7135969,3.42098166 C67.2721672,3.42098166 67.7265949,3.87876332 67.7265949,4.44162795 L67.7265949,35.9078288 Z M67.7264563,47.8749904 C67.7264563,48.4377153 67.2723059,48.8954969 66.7135969,48.8954969 L4.28629219,48.8954969 C3.72772188,48.8954969 3.27329414,48.437855 3.27329414,47.8749904 L3.27329414,39.2064838 L67.7264563,39.2064838 L67.7264563,47.8749904 Z M27.1685383,60.5619424 C28.2842922,59.1176105 28.9514426,57.3049293 28.9514426,55.3369991 L28.9514426,52.1942917 L42.0485852,52.1942917 L42.0485852,55.3369991 C42.0485852,57.3049293 42.7158742,59.1177502 43.8316281,60.5619424 L27.1685383,60.5619424 Z M66.7137355,0.122466376 L4.28629219,0.122466376 C1.92290742,0.122466376 -5.546875e-05,2.06007336 -5.546875e-05,4.44162795 L-5.546875e-05,47.8748507 C-5.546875e-05,50.2564052 1.92290742,52.1940122 4.28629219,52.1940122 L25.677677,52.1940122 L25.677677,55.3367197 C25.677677,58.2175581 23.3515949,60.5616629 20.4925969,60.5616629 L15.7781691,60.5616629 C14.8744445,60.5616629 14.141425,61.3000384 14.141425,62.2108507 C14.141425,63.1219424 14.8744445,63.8601782 15.7781691,63.8601782 L55.2214426,63.8601782 C56.1254445,63.8601782 56.8581867,63.1219424 56.8581867,62.2108507 C56.8581867,61.3000384 56.1254445,60.5616629 55.2214426,60.5616629 L50.5068762,60.5616629 C47.6478781,60.5616629 45.3219348,58.2175581 45.3219348,55.3367197 L45.3219348,52.194152 L66.7133195,52.194152 C69.0767043,52.194152 70.9996672,50.256545 70.9996672,47.8749904 L70.9996672,4.44162795 C70.9999445,2.06007336 69.0771203,0.122466376 66.7137355,0.122466376 Z" id="Fill-1" fill="#164377" mask="url(#mask-2)"></path>
                                </g>
                                <path d="M35.5004021,42.2889642 C36.4759588,42.2889642 37.2668045,43.0857502 37.2668045,44.068807 C37.2668045,45.0518638 36.4759588,45.8489293 35.5004021,45.8489293 C34.5248455,45.8489293 33.7339998,45.0518638 33.7339998,44.068807 C33.7339998,43.0857502 34.5248455,42.2889642 35.5004021,42.2889642" id="Fill-4" fill="#FFFFFF"></path>
                                <path d="M38.306483,11.5027983 C37.6672057,10.8587459 36.6311881,10.8587459 35.9916334,11.5027983 L24.4244576,23.1589031 C23.7853189,23.8029555 23.7853189,24.8473572 24.4244576,25.4915493 C24.744235,25.8136454 25.1628854,25.9746236 25.5819518,25.9746236 C26.0010182,25.9746236 26.4196686,25.8136454 26.7393072,25.4915493 L38.306483,13.8354445 C38.945483,13.1913921 38.945483,12.1469904 38.306483,11.5027983" id="Fill-6" fill="#FFFFFF"></path>
                                <path d="M45.1623373,18.257579 C44.523476,17.6135266 43.4873197,17.6135266 42.847765,18.2574393 L38.23956,22.9006533 C37.60056,23.5448454 37.60056,24.5892472 38.23956,25.2332996 C38.5591986,25.5553956 38.9779877,25.7163738 39.3969154,25.7163738 C39.8157045,25.7163738 40.2346322,25.5553956 40.5544096,25.2332996 L45.1623373,20.5900856 C45.801476,19.9460332 45.801476,18.9016314 45.1623373,18.257579" id="Fill-8" fill="#FFFFFF"></path>
                            </g>
                        </g>
                        <path d="M130.900006,53.3206227 L109.974885,53.3206227 C109.106099,53.3206227 108.401567,52.6160912 108.401567,51.7473053 C108.401567,50.8783621 109.106099,50.1739879 109.974885,50.1739879 L130.900006,50.1739879 C131.768792,50.1739879 132.473323,50.8783621 132.473323,51.7473053 C132.473323,52.6160912 131.768792,53.3206227 130.900006,53.3206227" id="Fill-5" fill="#FFFFFF"></path>
                        <path d="M22.4984385,53.3206227 L1.57331738,53.3206227 C0.70437419,53.3206227 0,52.6160912 0,51.7473053 C0,50.8783621 0.70437419,50.1739879 1.57331738,50.1739879 L22.4984385,50.1739879 C23.3673817,50.1739879 24.0717559,50.8783621 24.0717559,51.7473053 C24.0717559,52.6160912 23.3673817,53.3206227 22.4984385,53.3206227" id="Fill-7" fill="#FFFFFF"></path>
                        <path d="M30.8590628,17.9430396 C30.4564509,17.9430396 30.0536816,17.7893265 29.7465701,17.482215 L14.9501494,2.68595169 C14.335769,2.07157126 14.335769,1.07534669 14.9501494,0.460808927 C15.5646872,-0.153571509 16.5609118,-0.153571509 17.1752922,0.460808927 L31.9715555,15.2572295 C32.5859359,15.87161 32.5859359,16.8678345 31.9715555,17.482215 C31.6644439,17.7893265 31.2616747,17.9430396 30.8590628,17.9430396" id="Fill-9" fill="#FFFFFF"></path>
                        <path d="M116.410587,103.494548 C116.007817,103.494548 115.605363,103.340835 115.298094,103.033723 L100.501831,88.2374598 C99.8874502,87.6230793 99.8874502,86.6268548 100.501831,86.0124743 C101.116368,85.3980939 102.112278,85.3980939 102.726816,86.0124743 L117.523079,100.808738 C118.137617,101.423118 118.137617,102.419343 117.523079,103.033723 C117.21581,103.340835 116.813356,103.494548 116.410587,103.494548" id="Fill-11" fill="#FFFFFF"></path>
                        <path d="M16.0627366,103.494548 C15.6599673,103.494548 15.2575127,103.340835 14.9502438,103.033723 C14.3357061,102.419343 14.3358634,101.423118 14.9502438,100.808738 L29.7465071,86.0124743 C30.3610449,85.3980939 31.3571121,85.3982512 31.9716499,86.0124743 C32.5860303,86.6268548 32.585873,87.6230793 31.9716499,88.2374598 L17.1752293,103.033723 C16.8681177,103.340835 16.4653485,103.494548 16.0627366,103.494548" id="Fill-13" fill="#FFFFFF"></path>
                        <path d="M101.614339,17.9430396 C101.21157,17.9430396 100.809115,17.7894838 100.501846,17.482215 C99.8873086,16.8678345 99.8873086,15.87161 100.501846,15.2572295 L115.29811,0.460966258 C115.912647,-0.153414177 116.908557,-0.153571509 117.523095,0.460808927 C118.137475,1.07534669 118.137475,2.07157126 117.523095,2.68579436 L102.726832,17.482215 C102.419563,17.7893265 102.017108,17.9430396 101.614339,17.9430396" id="Fill-15" fill="#FFFFFF"></path>
                    </g>
                </g>
            </g>
        </g>
    </g>
</svg>