<?xml version="1.0" encoding="UTF-8"?>
<svg width="76px" height="101px" viewBox="0 0 76 101" version="1.1" xmlns="http://www.w3.org/2000/svg" xmlns:xlink="http://www.w3.org/1999/xlink">
    <!-- Generator: Sketch 50.2 (55047) - http://www.bohemiancoding.com/sketch -->
    <title>Sim2</title>
    <desc>Created with Sketch.</desc>
    <defs></defs>
    <g id="Elements" stroke="none" stroke-width="1" fill="none" fill-rule="evenodd">
        <g id="Icon-2-Copy-2">
            <g id="Sim2" transform="translate(-0.157038, 0.098373)">
                <path d="M71.4909468,91.8427474 C71.4909468,94.1382507 69.6223368,96.0068606 67.3268336,96.0068606 L9.02827273,96.0068606 C6.73276945,96.0068606 4.86415952,94.1382507 4.86415952,91.8427474 L4.86415952,8.55931216 C4.86415952,6.26380888 6.73276945,4.39519895 9.02827273,4.39519895 L51.8819614,4.39519895 L71.4909468,23.9959861 L71.4909468,91.8427474 Z M75.0450729,21.661834 L54.2161135,0.840877601 C53.8257218,0.450485888 53.2971314,0.230890549 52.7439463,0.230890549 L9.02827273,0.230890549 C4.43492383,0.230890549 0.69985112,3.96596326 0.69985112,8.55931216 L0.69985112,91.8429426 C0.69985112,96.4360963 4.43492383,100.171169 9.02827273,100.171169 L67.3268336,100.171169 C71.9199873,100.171169 75.65506,96.4360963 75.65506,91.8427474 L75.65506,23.133806 C75.65506,22.5808161 75.4354646,22.0522257 75.0450729,21.661834 Z" id="Fill-1" fill="#018AFF"></path>
                <path d="M38.4100119,65.5908177 C39.6274485,65.5908177 40.6180674,64.5041623 40.6180674,63.1682419 L40.6180674,42.9045696 L57.9108587,42.9045696 L57.90715,63.7557814 C57.90715,74.6510285 49.0433062,83.5152628 38.1480591,83.5152628 C27.2524215,83.5152628 18.3883825,74.6510285 18.3883825,63.7555862 L18.3883825,42.9045696 L25.0857475,42.9045696 L25.0857475,63.8627487 C25.0857475,71.0650855 30.9455272,76.9244747 38.1480591,76.9244747 C45.3507862,76.9244747 51.2103706,71.0650855 51.2103706,63.8627487 L51.2103706,49.1541554 L46.7948451,49.1541554 L46.7948451,63.8627487 C46.7948451,68.6306027 42.915913,72.5093396 38.1480591,72.5093396 C33.3800099,72.5093396 29.5010778,68.6306027 29.5010778,63.8627487 L29.5010778,38.4892394 L13.9732474,38.4892394 L13.9732474,63.7555862 C13.9732474,77.0857065 24.8179388,87.9303978 38.1480591,87.9303978 C51.4779841,87.9303978 62.3226755,77.0860968 62.3226755,63.756367 L62.3275554,38.4892394 L36.2027372,38.4892394 L36.2027372,63.1682419 C36.2027372,64.5041623 37.1929657,65.5908177 38.4100119,65.5908177" id="Fill-3" fill="#FFFFFF"></path>
            </g>
        </g>
    </g>
</svg>