<?xml version="1.0" encoding="iso-8859-1"?>
<!-- Generator: Adobe Illustrator 21.1.0, SVG Export Plug-In . SVG Version: 6.00 Build 0)  -->
<svg version="1.1" id="Layer_1" xmlns="http://www.w3.org/2000/svg" xmlns:xlink="http://www.w3.org/1999/xlink"
	 viewBox="0 0 23 19" xml:space="preserve">
<title>Twitter</title>
<desc>Created with Sketch.</desc>
<g id="Elements">
	<g id="Nav" transform="translate(-1458.000000, -64.000000)">
		<g id="Group" transform="translate(1402.750909, 61.463901)">
			<g id="Twitter" transform="translate(55.575946, 2.767448)">
				<g id="Clip-2">
				</g>
				<defs>
					<filter id="Adobe_OpacityMaskFilter" filterUnits="userSpaceOnUse" x="0" y="0" width="22.822" height="18.547">
						<feColorMatrix  type="matrix" values="1 0 0 0 0  0 1 0 0 0  0 0 1 0 0  0 0 0 1 0"/>
					</filter>
				</defs>
				<mask maskUnits="userSpaceOnUse" x="0" y="0" width="22.822" height="18.547" id="mask-2">
					<g style="filter:url(#Adobe_OpacityMaskFilter);">
						<polygon id="path-1" style="fill:#FFFFFF;" points="22.822,0 22.822,18.547 0,18.547 0,0 						"/>
					</g>
				</mask>
				<path id="Fill-1" style="mask:url(#mask-2);fill:#FFFFFF;" d="M20.132,2.933c0.967-0.579,1.709-1.497,2.059-2.591
					c-0.905,0.536-1.907,0.926-2.974,1.136C18.364,0.568,17.147,0,15.8,0c-2.586,0-4.682,2.096-4.682,4.682
					c0,0.367,0.041,0.724,0.121,1.067C7.348,5.554,3.897,3.69,1.589,0.857C1.186,1.549,0.954,2.353,0.954,3.211
					c0,1.624,0.827,3.057,2.083,3.897C2.27,7.084,1.548,6.873,0.917,6.523c0,0.019,0,0.039,0,0.059c0,2.269,1.614,4.161,3.756,4.591
					c-0.393,0.107-0.806,0.165-1.234,0.165c-0.301,0-0.595-0.03-0.881-0.084c0.596,1.86,2.326,3.214,4.374,3.251
					c-1.603,1.256-3.621,2.005-5.815,2.005c-0.378,0-0.75-0.022-1.117-0.066c2.072,1.329,4.532,2.104,7.177,2.104
					c8.612,0,13.321-7.135,13.321-13.322c0-0.202-0.004-0.405-0.013-0.606c0.915-0.66,1.708-1.484,2.336-2.424
					C21.982,2.568,21.08,2.819,20.132,2.933z"/>
			</g>
		</g>
	</g>
</g>
</svg>
