<?xml version="1.0" encoding="iso-8859-1"?>
<!-- Generator: Adobe Illustrator 23.0.0, SVG Export Plug-In . SVG Version: 6.00 Build 0)  -->
<svg version="1.1" id="Layer_1" xmlns="http://www.w3.org/2000/svg" xmlns:xlink="http://www.w3.org/1999/xlink" x="0px" y="0px"
	 viewBox="0 0 37 28" style="enable-background:new 0 0 37 28;" xml:space="preserve">
<title>upoint-cars</title>
<desc>Created with Sketch.</desc>
<g id="Main-Pages">
	<g transform="translate(-256.000000, -1312.000000)">
		<g id="upoint-cars" transform="translate(256.000000, 1312.000000)">
			<path class="fill" style="fill-rule:evenodd;clip-rule:evenodd;fill:#FFFFFF;" d="M33.695,21.621H3.305
				c-0.941,0.008-1.716-0.723-1.723-1.647v-6.065c0-0.847,0.387-1.655,1.051-2.201l0.032-0.031l1.075-0.985h29.94l0.759,0.793
				c0.008,0.015,0.032,0.023,0.04,0.038c0.593,0.546,0.933,1.308,0.933,2.101v6.35h0.008C35.411,20.89,34.636,21.628,33.695,21.621z
				 M35.419,24.73c-0.008,0.924-0.775,1.662-1.724,1.662h-2.087c-0.949,0-1.716-0.747-1.723-1.662v-1.57h3.811
				c0.625,0,1.249-0.146,1.724-0.446V24.73z M7.115,24.73c-0.008,0.924-0.775,1.662-1.724,1.662H3.305
				c-0.949,0-1.716-0.739-1.723-1.662v-2.016c0.474,0.3,1.099,0.446,1.723,0.446h3.811V24.73z M29.481,9.152h-7.519
				c0.435-2.024,2.475-3.317,4.554-2.894C28.003,6.566,29.165,7.698,29.481,9.152z M7.036,2.687C7.289,2.033,7.93,1.61,8.641,1.61
				h20.223c0.712,0,1.352,0.431,1.605,1.078l2.467,6.465h-1.842c-0.435-2.886-3.194-4.88-6.159-4.449
				c-2.364,0.339-4.222,2.147-4.57,4.449H4.57L7.036,2.687z M35.585,10.422l-0.806-0.831l-2.83-7.427
				c-0.482-1.255-1.716-2.086-3.091-2.094H8.641c-1.376,0-2.609,0.839-3.091,2.094L2.759,9.499l-1.162,1.047
				C0.585,11.384,0,12.616,0,13.909V24.73c0.008,1.77,1.486,3.202,3.305,3.202h2.087c1.818,0,3.297-1.432,3.305-3.202v-1.57h19.607
				v1.57c0.008,1.77,1.486,3.202,3.305,3.202h2.087c1.818,0,3.297-1.432,3.305-3.202V13.624
				C36.992,12.416,36.486,11.261,35.585,10.422z"/>
			<path class="fill" style="fill-rule:evenodd;clip-rule:evenodd;fill:#FFFFFF;" d="M5.297,17.772h4.348V15.31H5.297V17.772z
				 M10.436,13.77H4.506c-0.435,0-0.791,0.346-0.791,0.77v4.002c0,0.423,0.356,0.77,0.791,0.77h5.929
				c0.435,0,0.791-0.346,0.791-0.77V14.54C11.227,14.117,10.871,13.77,10.436,13.77z"/>
			<path class="fill" style="fill-rule:evenodd;clip-rule:evenodd;fill:#FFFFFF;" d="M27.355,17.772h4.348V15.31h-4.348V17.772z
				 M32.494,13.77h-5.929c-0.435,0-0.791,0.346-0.791,0.77v4.002c0,0.423,0.356,0.77,0.791,0.77h5.929
				c0.435,0,0.791-0.346,0.791-0.77V14.54C33.284,14.117,32.928,13.77,32.494,13.77z"/>
			<path class="fill" style="fill-rule:evenodd;clip-rule:evenodd;fill:#FFFFFF;" d="M22.319,17.003h-7.637
				c-0.435,0-0.791,0.346-0.791,0.77c0,0.423,0.356,0.77,0.791,0.77h7.637c0.435,0,0.791-0.346,0.791-0.77
				C23.109,17.349,22.753,17.003,22.319,17.003"/>
			<path class="fill" style="fill-rule:evenodd;clip-rule:evenodd;fill:#FFFFFF;" d="M22.319,14.617h-7.637
				c-0.435,0-0.791,0.346-0.791,0.77s0.356,0.77,0.791,0.77h7.637c0.435,0,0.791-0.346,0.791-0.77S22.753,14.617,22.319,14.617"/>
		</g>
	</g>
</g>
</svg>
