<?xml version="1.0" encoding="iso-8859-1"?>
<!-- Generator: Adobe Illustrator 21.1.0, SVG Export Plug-In . SVG Version: 6.00 Build 0)  -->
<svg version="1.1" id="Layer_1" xmlns="http://www.w3.org/2000/svg" xmlns:xlink="http://www.w3.org/1999/xlink" viewBox="0 0 61 71" xml:space="preserve">
<title>User</title>
<desc>Created with Sketch.</desc>
<g id="Elements">
	<g id="Icon-3-Copy-2" transform="translate(-7.000000, -14.000000)">
		<g id="User" transform="translate(7.346123, 14.013672)">
			<path id="Fill-1" style="fill:#318BF4;" d="M32.257,52.608c1.053,0,1.907-0.853,1.907-1.907c0-1.053-0.853-1.907-1.907-1.907
				h-1.407V44.38c0-1.053-0.853-1.907-1.907-1.907s-1.907,0.854-1.907,1.907v6.321c0,1.053,0.853,1.907,1.907,1.907H32.257z"/>
			<g id="Group-5" transform="translate(0.000000, 0.192559)">
				<g id="Clip-4">
				</g>
				<defs>
					<filter id="Adobe_OpacityMaskFilter" filterUnits="userSpaceOnUse" x="0" y="0.042" width="60.052" height="70.555">
						<feColorMatrix  type="matrix" values="1 0 0 0 0  0 1 0 0 0  0 0 1 0 0  0 0 0 1 0"/>
					</filter>
				</defs>
				<mask maskUnits="userSpaceOnUse" x="0" y="0.042" width="60.052" height="70.555" id="mask-2">
					<g style="filter:url(#Adobe_OpacityMaskFilter);">
						<polygon id="path-1" style="fill:#FFFFFF;" points="0,0.042 60.052,0.042 60.052,70.597 0,70.597 						"/>
					</g>
				</mask>
				<path id="Fill-3" style="mask:url(#mask-2);fill:#318BF4;" d="M8.149,39.155v10.349c-2.46-0.439-4.335-2.59-4.335-5.174
					C3.813,41.745,5.688,39.594,8.149,39.155z M6.309,26.605c0-12.544,10.205-22.75,22.749-22.75h2.056
					c12.545,0,22.751,10.206,22.751,22.751v9.123c-0.627-0.211-1.284-0.358-1.963-0.427c0-0.008-0.001-0.016-0.001-0.024
					c-0.001-0.042-0.003-0.084-0.006-0.125c-0.002-0.025-0.007-0.05-0.01-0.075c-0.005-0.036-0.01-0.073-0.017-0.109
					c-0.006-0.03-0.013-0.06-0.021-0.09c-0.007-0.03-0.014-0.059-0.022-0.088c-0.01-0.034-0.022-0.067-0.033-0.1
					c-0.009-0.024-0.017-0.048-0.027-0.072c-0.014-0.035-0.03-0.069-0.046-0.103c-0.01-0.021-0.02-0.043-0.03-0.064
					c-0.018-0.033-0.036-0.065-0.055-0.097c-0.012-0.021-0.025-0.042-0.038-0.063c-0.019-0.029-0.039-0.057-0.06-0.086
					c-0.016-0.022-0.032-0.044-0.049-0.066c-0.02-0.025-0.04-0.048-0.061-0.072c-0.02-0.023-0.04-0.046-0.062-0.068
					c-0.02-0.021-0.041-0.04-0.061-0.06c-0.024-0.023-0.049-0.045-0.074-0.067c-0.021-0.018-0.042-0.034-0.064-0.051
					c-0.027-0.021-0.053-0.042-0.081-0.061c-0.023-0.016-0.048-0.031-0.072-0.046c-0.027-0.017-0.055-0.034-0.083-0.051
					c-0.028-0.016-0.057-0.03-0.086-0.044c-0.026-0.013-0.051-0.026-0.078-0.038c-0.034-0.015-0.07-0.028-0.105-0.042
					c-0.023-0.008-0.045-0.018-0.069-0.025c-0.039-0.013-0.08-0.023-0.12-0.034c-0.017-0.004-0.033-0.01-0.051-0.014
					c-7.461-1.697-9.713-11.095-9.734-11.186c-0.166-0.731-0.743-1.297-1.477-1.447c-0.734-0.151-1.488,0.143-1.927,0.751
					c-8.48,11.723-26.916,11.835-27.217,11.835h-0.001h-0.008c-0.066,0-0.13,0.003-0.194,0.01c-0.02,0.002-0.039,0.006-0.06,0.009
					c-0.043,0.006-0.087,0.011-0.129,0.02c-0.027,0.006-0.054,0.014-0.081,0.021c-0.034,0.009-0.068,0.016-0.102,0.026
					c-0.031,0.01-0.061,0.022-0.091,0.033c-0.028,0.01-0.057,0.019-0.084,0.03c-0.035,0.015-0.068,0.032-0.102,0.049
					c-0.021,0.011-0.044,0.02-0.065,0.031C9.114,33.67,9.083,33.69,9.051,33.71c-0.02,0.013-0.042,0.024-0.061,0.037
					c-0.03,0.02-0.058,0.043-0.087,0.065c-0.019,0.015-0.04,0.029-0.059,0.044c-0.026,0.021-0.05,0.045-0.075,0.068
					c-0.02,0.018-0.041,0.036-0.061,0.055c-0.023,0.023-0.044,0.048-0.066,0.072c-0.019,0.021-0.039,0.041-0.057,0.063
					c-0.02,0.024-0.038,0.05-0.057,0.075c-0.018,0.024-0.037,0.047-0.053,0.072c-0.016,0.024-0.031,0.05-0.046,0.076
					c-0.016,0.027-0.034,0.053-0.049,0.081c-0.013,0.025-0.025,0.051-0.037,0.076c-0.015,0.03-0.03,0.059-0.043,0.09
					c-0.011,0.025-0.019,0.051-0.028,0.076c-0.012,0.033-0.025,0.065-0.036,0.098c-0.008,0.026-0.014,0.053-0.021,0.079
					c-0.009,0.034-0.019,0.068-0.027,0.103c-0.006,0.028-0.009,0.057-0.013,0.084c-0.006,0.034-0.012,0.069-0.016,0.104
					c-0.003,0.03-0.003,0.06-0.005,0.09c-0.002,0.027-0.004,0.054-0.005,0.082c-0.635,0.064-1.249,0.196-1.839,0.385V26.605z
					 M56.24,44.33c0,2.584-1.875,4.735-4.335,5.174V39.155C54.365,39.594,56.24,41.745,56.24,44.33z M48.091,50.674
					c0,8.883-7.227,16.11-16.11,16.11h-3.908c-8.884,0-16.111-7.227-16.111-16.11V37.169c4.874-0.3,17.826-1.922,26.156-10.642
					c1.437,3.381,4.413,8.317,9.973,10.236V50.674z M8.336,53.371c0.904,6.642,5.09,12.252,10.869,15.136l3.813,1.438
					c1.615,0.424,3.308,0.652,5.054,0.652h3.908c1.746,0,3.439-0.228,5.054-0.651l3.812-1.438
					c5.779-2.885,9.965-8.495,10.868-15.136c4.659-0.377,8.336-4.287,8.336-9.041c0-2.353-0.9-4.499-2.374-6.113V26.606
					c0-14.648-11.916-26.564-26.563-26.564h-2.056c-14.646,0-26.562,11.916-26.562,26.564v11.482C0.952,39.715,0,41.913,0,44.33
					C0,49.084,3.677,52.994,8.336,53.371z"/>
			</g>
		</g>
	</g>
</g>
</svg>
